<svg xmlns="http://www.w3.org/2000/svg" xmlns:xlink="http://www.w3.org/1999/xlink" viewBox="0 0 500 500"><defs><style>.cls-1{isolation:isolate;}.cls-2{fill:#e8e8e8;}.cls-3{fill:url(#Orange);}.cls-4{fill:url(#Water_2);}.cls-5{fill:url(#Skintone_11);}.cls-6{fill:#de9574;}.cls-7{fill:#7c49a0;}.cls-8{fill:url(#Безымянный_градиент_2);}.cls-9{fill:url(#Безымянный_градиент_2-2);}.cls-10{fill:#81645b;}.cls-11{fill:#f2e1d5;}.cls-12{fill:#be9de2;}.cls-13{fill:#d39074;}.cls-14{fill:#a58ece;}.cls-15{fill:#f5c0a2;}.cls-16{fill:#a85432;}.cls-17{fill:url(#linear-gradient);}.cls-18{fill:url(#linear-gradient-2);}.cls-19{fill:url(#linear-gradient-3);}.cls-20{fill:#e4c9bb;}.cls-21{fill:#7640c5;}.cls-22{fill:#bc9ce2;}.cls-23{fill:url(#Безымянный_градиент_2-3);}.cls-24{fill:#993f24;}.cls-25{fill:url(#Безымянный_градиент_2-4);}.cls-26{fill:url(#linear-gradient-4);}.cls-27{fill:#e39e7d;}.cls-28{fill:#f9e9e4;}.cls-28,.cls-42,.cls-43,.cls-48{mix-blend-mode:multiply;}.cls-29{fill:#403331;}.cls-30{fill:#daab92;}.cls-31{fill:#27242d;}.cls-32{fill:#f8f8f2;}.cls-33{fill:#ead0c0;}.cls-34{fill:url(#linear-gradient-5);}.cls-35{fill:url(#linear-gradient-6);}.cls-36{fill:#f7d2b0;}.cls-37{fill:url(#linear-gradient-7);}.cls-38{fill:#9876d3;}.cls-39{fill:url(#linear-gradient-8);}.cls-40{fill:url(#linear-gradient-9);}.cls-41{fill:url(#radial-gradient);}.cls-42{fill:url(#linear-gradient-10);}.cls-43{fill:url(#linear-gradient-11);}.cls-44{fill:url(#radial-gradient-2);}.cls-45{fill:url(#linear-gradient-12);}.cls-46,.cls-47,.cls-48{opacity:0.28;}.cls-46,.cls-47{mix-blend-mode:screen;}.cls-46{fill:url(#linear-gradient-13);}.cls-47{fill:url(#linear-gradient-14);}.cls-48{fill:url(#linear-gradient-15);}</style><linearGradient id="Orange" x1="242.88" y1="-3174.63" x2="150.46" y2="-3426.56" gradientTransform="translate(325.28 -2950.78) rotate(178.31)" gradientUnits="userSpaceOnUse"><stop offset="0" stop-color="#eec4b1"/><stop offset="0.5" stop-color="#e4a68c"/><stop offset="0.57" stop-color="#e3a287"/><stop offset="1" stop-color="#dd8f70"/></linearGradient><linearGradient id="Water_2" x1="204.48" y1="-3491.59" x2="318.64" y2="-3198.06" gradientTransform="translate(457.87 -3132.72) rotate(178.8)" gradientUnits="userSpaceOnUse"><stop offset="0" stop-color="#b89ff4"/><stop offset="0.5" stop-color="#bb87ed"/><stop offset="0.65" stop-color="#a861ef"/><stop offset="0.79" stop-color="#9942f1"/><stop offset="0.91" stop-color="#8f2ff2"/><stop offset="1" stop-color="#8c28f2"/></linearGradient><linearGradient id="Skintone_11" x1="-545.37" y1="34.86" x2="-467.62" y2="244.11" gradientTransform="translate(795.4 237.85) rotate(8.06)" gradientUnits="userSpaceOnUse"><stop offset="0" stop-color="#fcf2e9"/><stop offset="0.5" stop-color="#f9ebdc"/><stop offset="1" stop-color="#eacab8"/></linearGradient><linearGradient id="Безымянный_градиент_2" x1="76.8" y1="285.76" x2="297" y2="285.76" gradientUnits="userSpaceOnUse"><stop offset="0" stop-color="#a25dee"/><stop offset="0.39" stop-color="#fff"/><stop offset="0.46" stop-color="#fbf9fd"/><stop offset="0.55" stop-color="#f0e8f7"/><stop offset="0.66" stop-color="#ddcbee"/><stop offset="0.78" stop-color="#c3a3e1"/><stop offset="0.9" stop-color="#a271d1"/><stop offset="1" stop-color="#8342c2"/></linearGradient><linearGradient id="Безымянный_градиент_2-2" x1="184.01" y1="194.13" x2="192.36" y2="500.84" xlink:href="#Безымянный_градиент_2"/><linearGradient id="linear-gradient" x1="130.79" y1="359.98" x2="95.3" y2="310.3" gradientUnits="userSpaceOnUse"><stop offset="0" stop-color="#f7d2b0"/><stop offset="1" stop-color="#d9ad97"/></linearGradient><linearGradient id="linear-gradient-2" x1="293.55" y1="297.32" x2="324.87" y2="255.16" gradientUnits="userSpaceOnUse"><stop offset="0" stop-color="#f7d2b0"/><stop offset="1" stop-color="#e7b791"/></linearGradient><linearGradient id="linear-gradient-3" x1="287.01" y1="289.03" x2="303.71" y2="329.52" gradientUnits="userSpaceOnUse"><stop offset="0" stop-color="#f7f0e8"/><stop offset="1" stop-color="#ead0c0"/></linearGradient><linearGradient id="Безымянный_градиент_2-3" x1="124.7" y1="129.72" x2="220.04" y2="90.39" xlink:href="#Безымянный_градиент_2"/><linearGradient id="Безымянный_градиент_2-4" x1="131.81" y1="27.84" x2="160.48" y2="137.84" xlink:href="#Безымянный_градиент_2"/><linearGradient id="linear-gradient-4" x1="179.08" y1="142.38" x2="199.54" y2="286.83" xlink:href="#linear-gradient-2"/><linearGradient id="linear-gradient-5" x1="192.83" y1="155.3" x2="223.82" y2="236.17" xlink:href="#linear-gradient-2"/><linearGradient id="linear-gradient-6" x1="224.41" y1="229.09" x2="234.84" y2="220.33" xlink:href="#linear-gradient-3"/><linearGradient id="linear-gradient-7" x1="181.31" y1="136.03" x2="212.41" y2="136.03" gradientUnits="userSpaceOnUse"><stop offset="0" stop-color="#a85432"/><stop offset="0.99" stop-color="#b76732"/><stop offset="1" stop-color="#b77032"/></linearGradient><linearGradient id="linear-gradient-8" x1="412.24" y1="255.41" x2="227.3" y2="269.19" gradientUnits="userSpaceOnUse"><stop offset="0" stop-color="#e1dfe0"/><stop offset="1" stop-color="#b8b1b6"/></linearGradient><linearGradient id="linear-gradient-9" x1="261.52" y1="266.62" x2="388.71" y2="266.62" gradientUnits="userSpaceOnUse"><stop offset="0" stop-color="#f3f2f3"/><stop offset="1" stop-color="#c2b9c0"/></linearGradient><radialGradient id="radial-gradient" cx="301.04" cy="211.57" r="120.01" gradientUnits="userSpaceOnUse"><stop offset="0" stop-color="#ede3ed"/><stop offset="0.35" stop-color="#b7afb4"/><stop offset="0.52" stop-color="#a29a9e"/><stop offset="0.74" stop-color="#a29a9e"/><stop offset="1" stop-color="#a29a9e"/></radialGradient><linearGradient id="linear-gradient-10" x1="414.62" y1="202.46" x2="357" y2="233.35" gradientUnits="userSpaceOnUse"><stop offset="0" stop-color="#c1a4c7"/><stop offset="1" stop-color="#fff"/></linearGradient><linearGradient id="linear-gradient-11" x1="322.88" y1="195.56" x2="331.94" y2="195.56" xlink:href="#linear-gradient-10"/><radialGradient id="radial-gradient-2" cx="318.3" cy="170.51" r="28.52" gradientUnits="userSpaceOnUse"><stop offset="0" stop-color="#bc9fb6"/><stop offset="0.35" stop-color="#eee4ed"/><stop offset="0.36" stop-color="#ebe1ea"/><stop offset="0.53" stop-color="#c4bbc1"/><stop offset="0.66" stop-color="#aba3a7"/><stop offset="0.74" stop-color="#a29a9e"/><stop offset="0.87" stop-color="#a39ba0"/><stop offset="0.92" stop-color="#a89da7"/><stop offset="0.96" stop-color="#b1a0b2"/><stop offset="0.99" stop-color="#bea5c3"/><stop offset="1" stop-color="#c4a8cc"/></radialGradient><linearGradient id="linear-gradient-12" x1="330.67" y1="182.9" x2="330.7" y2="182.9" gradientUnits="userSpaceOnUse"><stop offset="0" stop-color="#bc9fb6"/><stop offset="0.35" stop-color="#e6d5ea"/><stop offset="0.52" stop-color="#c1b5c1"/><stop offset="0.66" stop-color="#aaa1a7"/><stop offset="0.74" stop-color="#a29a9e"/><stop offset="0.87" stop-color="#a39ba0"/><stop offset="0.92" stop-color="#a89da7"/><stop offset="0.96" stop-color="#b1a0b2"/><stop offset="0.99" stop-color="#bea5c3"/><stop offset="1" stop-color="#c4a8cc"/></linearGradient><linearGradient id="linear-gradient-13" x1="320.67" y1="183.46" x2="329.4" y2="183.46" gradientUnits="userSpaceOnUse"><stop offset="0" stop-color="#cf96b8"/><stop offset="1" stop-color="#9a6787"/></linearGradient><linearGradient id="linear-gradient-14" x1="310.77" y1="189.52" x2="287.39" y2="223.75" gradientUnits="userSpaceOnUse"><stop offset="0" stop-color="#e2e1e5"/><stop offset="1" stop-color="#2a232f"/></linearGradient><linearGradient id="linear-gradient-15" x1="269.07" y1="259.91" x2="378.91" y2="259.91" gradientUnits="userSpaceOnUse"><stop offset="0" stop-color="#e2e1e5"/><stop offset="1" stop-color="#b7b0b5"/></linearGradient></defs><title>Cozinheiro</title><g class="cls-1"><g id="Layer_1" data-name="Layer 1"><rect class="cls-2" width="500" height="500"/><path class="cls-3" d="M105.08,382.11c-5.94-16.57-5.83-37.76,3.47-64.6,8.94-25.82,32.28-46.91,53.34-41.58,10.45,2.65,18.79,11,27.73,17.58,13.43,9.88,28.36,9.46,44.26,8,68.31-6.35,123,18.38,122.21,55.24S299.24,428.63,230.93,435C187.81,439,122,429.21,105.08,382.11Z"/><path class="cls-4" d="M218.89,328.15a23.84,23.84,0,0,1,5.16.53c7.08,1.57,12.17,6.95,19.31,8.73,21.87,5.44,49.54-1.39,69.64-10,41.72-17.9,79.26-54.92,101.73-93.86C430.6,206,445.62,167,430.48,136.22,413.69,102.16,369,93.14,334.43,94c-42.35,1-83.27,17.44-119.53,38.34-49.16,28.34-95.21,74.42-108.34,130.81-8.1,34.82,5.92,90.39,52.15,85.94,12.94-1.25,24.4-8.42,36.16-14C201.79,331.85,210.66,328.17,218.89,328.15Z"/><ellipse class="cls-5" cx="274.28" cy="304.58" rx="158.29" ry="88.38" transform="translate(-124.83 211.28) rotate(-34.84)"/><path class="cls-6" d="M195.41,195.2l1.6,26.59s-7.31,4.79-9.31,4.39-21-3.49-21-5.08-10.09-42.78-10.09-42.78Z"/><path class="cls-7" d="M138.29,329.58c1.67-.56,35.91-1.12,79.32,15.58a61.6,61.6,0,0,0-5.84,11s-46.2-1.53-47.59-1.53-23.94-12-23.94-12.81S138.29,329.58,138.29,329.58Z"/><path class="cls-8" d="M297,305.3c-29.38,44.47-51.23,26.45-67.95-3.28-7.73,26.29-16.86,50-16.86,50l-65.15.4-4.16,0s0-2.33-.07-6.38a423.73,423.73,0,0,0-5-56.79c-10.23,4.26-21,9.51-23.69,15.16s-2.27,11.5-.29,17.34c-4.06,3.8-8.88,8.53-12.88,12.5C85.38,320,71.8,302.07,78.59,286.44c35.9-58.45,48-64.71,103.12-67.22a62.81,62.81,0,0,1,20.51,2.13c23.16,4.84,33.28,13.28,40,21.25,20.67,24.41,21.31,64.86,46,49.21C290.85,295.7,294.07,300.73,297,305.3Z"/><path class="cls-9" d="M297,305.3c-29.38,44.47-51.23,26.45-67.95-3.28-7.73,26.29-16.86,50-16.86,50l-65.15.4-4.16,0s0-2.33-.07-6.38a423.73,423.73,0,0,0-5-56.79c-10.23,4.26-21,9.51-23.69,15.16s-2.27,11.5-.29,17.34c-4.06,3.8-8.88,8.53-12.88,12.5C85.38,320,71.8,302.07,78.59,286.44c35.9-58.45,48-64.71,103.12-67.22a62.81,62.81,0,0,1,20.51,2.13c23.16,4.84,33.28,13.28,40,21.25,20.67,24.41,21.31,64.86,46,49.21C290.85,295.7,294.07,300.73,297,305.3Z"/><path class="cls-10" d="M162.51,210.52s21-11.06,38.27,4.53c-.28,8.07-.56,12.52-1.4,13.36s-18.09,4.17-18.92,3.61-18.09-14.19-18.37-15S162.51,210.52,162.51,210.52Z"/><path class="cls-11" d="M162.51,210.45c23.93,22.24,37.64,10.93,38.13,4.46,2.36,3.48,1.63,2.3,1.58,6.44s.78,13.74-12.16,15.82c-15.71,2.54-29.64-11.69-30.48-15.44S162.51,210.45,162.51,210.45Z"/><path class="cls-12" d="M202.22,221.35h0c.05-4.14-3.25,6.64-5.62,3.16-17.26-15.59-34.09-14.06-34.09-14.06s-3.19,6.39-3,10.33c-1.36.15-2.68.31-4,.48,7.74,13.65,33.67,36.54,77.33,12.47C226.17,228.86,216.77,224.39,202.22,221.35Z"/><path class="cls-13" d="M195.41,195.2l1.6,26.59s-7.31,4.79-9.31,4.39-21-3.49-21-5.08-10.09-42.78-10.09-42.78Z"/><path class="cls-14" d="M162.51,210.45c23.93,22.24,37.64,10.93,38.13,4.46,2.36,3.48,1.63,2.3,1.58,6.44s.78,13.74-12.16,15.82c-15.71,2.54-29.64-11.69-30.48-15.44S162.51,210.45,162.51,210.45Z"/><path class="cls-15" d="M314.47,273.08c2.23,2.22,1.95,2.78,4.18,2.5s7.79-4.73,7.79-4.73l-16.56.14Z"/><path class="cls-16" d="M164.18,183.5s-2.8,4.19-4.8,2.6c0,0-30.51-24.54-16.75-43.28a20.84,20.84,0,0,0,2.9-.08c.17,9.47,4.53,19.68,15.94,28.58h0C162.19,176.94,163.29,181.73,164.18,183.5Z"/><path class="cls-17" d="M135,359.5a231.6,231.6,0,0,1-34-25.27c4-4,8.82-8.7,12.88-12.5,5.55,16.33,23.67,31.5,23.67,31.5A7.76,7.76,0,0,1,135,359.5Z"/><path class="cls-18" d="M314.47,273.08A245.22,245.22,0,0,1,297,305.3c-2.93-4.57-6.15-9.6-8.72-13.49C294,288.17,301,281.54,309.88,271Z"/><path class="cls-19" d="M288.45,289.22c1.67.28,11.41,13.08,11.41,14.75s-1.67,6.12-3.62,6.68-14.75-15.31-13.91-17.26S288.45,289.22,288.45,289.22Z"/><path class="cls-20" d="M209.27,260.24a5.82,5.82,0,0,0,7.68-1.61,5,5,0,0,0-1.34-7.25,5.8,5.8,0,0,0-7.68,1.61A5,5,0,0,0,209.27,260.24Z"/><path class="cls-21" d="M208.68,259.88a5.8,5.8,0,0,0,7.68-1.61A5,5,0,0,0,215,251a5.8,5.8,0,0,0-7.68,1.61A5,5,0,0,0,208.68,259.88Z"/><path class="cls-22" d="M214.58,257.2l-5.23-2.43a.47.47,0,0,1-.24-.65h0a.54.54,0,0,1,.7-.22l5.24,2.42a.48.48,0,0,1,.23.66h0A.54.54,0,0,1,214.58,257.2Z"/><path class="cls-22" d="M211.16,258.15l2.94-4.74a.46.46,0,0,0-.19-.65h0a.52.52,0,0,0-.7.17l-2.93,4.75a.46.46,0,0,0,.18.65h0A.53.53,0,0,0,211.16,258.15Z"/><path class="cls-20" d="M171.28,262.12A5.81,5.81,0,0,0,179,260.5a5,5,0,0,0-1.34-7.24,5.8,5.8,0,0,0-7.68,1.61A5,5,0,0,0,171.28,262.12Z"/><path class="cls-21" d="M170.69,261.76a5.81,5.81,0,0,0,7.68-1.61A5,5,0,0,0,177,252.9a5.8,5.8,0,0,0-7.68,1.61A5,5,0,0,0,170.69,261.76Z"/><path class="cls-22" d="M176.59,259.08l-5.24-2.43a.47.47,0,0,1-.23-.65h0a.54.54,0,0,1,.7-.22l5.24,2.42a.48.48,0,0,1,.23.66h0A.55.55,0,0,1,176.59,259.08Z"/><path class="cls-22" d="M173.17,260l2.93-4.74a.47.47,0,0,0-.18-.66h0a.53.53,0,0,0-.7.18l-2.93,4.75a.46.46,0,0,0,.18.65h0A.53.53,0,0,0,173.17,260Z"/><path class="cls-20" d="M210.56,294.59a5.82,5.82,0,0,0,7.69,1.59,5,5,0,0,0,1.66-7.19,5.8,5.8,0,0,0-7.69-1.58A5,5,0,0,0,210.56,294.59Z"/><path class="cls-21" d="M210.16,294a5.8,5.8,0,0,0,7.69,1.59,5,5,0,0,0,1.66-7.18,5.82,5.82,0,0,0-7.69-1.59A5,5,0,0,0,210.16,294Z"/><path class="cls-22" d="M216.65,293.92l-3.84-4.31a.48.48,0,0,1,.05-.7h0a.54.54,0,0,1,.73.08l3.83,4.31a.48.48,0,0,1,0,.7h0A.54.54,0,0,1,216.65,293.92Z"/><path class="cls-22" d="M213.13,293.43l4.58-3.18a.46.46,0,0,0,.09-.67h0a.53.53,0,0,0-.71-.12l-4.58,3.18a.46.46,0,0,0-.09.67h0A.53.53,0,0,0,213.13,293.43Z"/><path class="cls-20" d="M174.85,300.48a5.81,5.81,0,0,0,7.85.34,5,5,0,0,0,.49-7.35,5.8,5.8,0,0,0-7.84-.34A5,5,0,0,0,174.85,300.48Z"/><path class="cls-21" d="M174.37,300a5.81,5.81,0,0,0,7.84.34,5,5,0,0,0,.5-7.36,5.82,5.82,0,0,0-7.84-.34A5,5,0,0,0,174.37,300Z"/><path class="cls-22" d="M180.76,298.85l-4.48-3.65a.47.47,0,0,1-.06-.69h0a.54.54,0,0,1,.73,0l4.47,3.65a.48.48,0,0,1,.07.69h0A.54.54,0,0,1,180.76,298.85Z"/><path class="cls-22" d="M177.2,298.93l4-3.87a.46.46,0,0,0,0-.68h0a.53.53,0,0,0-.72,0l-4,3.87a.45.45,0,0,0,0,.68h0A.52.52,0,0,0,177.2,298.93Z"/><path class="cls-20" d="M201.37,337.59a5.82,5.82,0,0,0,7.69,1.59,5,5,0,0,0,1.67-7.18,5.8,5.8,0,0,0-7.69-1.59A5,5,0,0,0,201.37,337.59Z"/><path class="cls-21" d="M201,337a5.79,5.79,0,0,0,7.68,1.58,5,5,0,0,0,1.67-7.18,5.82,5.82,0,0,0-7.69-1.59A5,5,0,0,0,201,337Z"/><path class="cls-22" d="M207.46,336.92l-3.83-4.31a.48.48,0,0,1,0-.7h0a.56.56,0,0,1,.73.08l3.84,4.32a.48.48,0,0,1-.05.69h0A.54.54,0,0,1,207.46,336.92Z"/><path class="cls-22" d="M203.94,336.43l4.59-3.18a.46.46,0,0,0,.09-.67h0a.53.53,0,0,0-.71-.12l-4.59,3.18a.47.47,0,0,0-.09.68h0A.53.53,0,0,0,203.94,336.43Z"/><path class="cls-20" d="M178.6,338.44a5.8,5.8,0,0,0,7.84.34,5,5,0,0,0,.5-7.35,5.8,5.8,0,0,0-7.84-.34A5,5,0,0,0,178.6,338.44Z"/><path class="cls-21" d="M178.11,338a5.82,5.82,0,0,0,7.85.34,5,5,0,0,0,.5-7.35,5.82,5.82,0,0,0-7.85-.35A5,5,0,0,0,178.11,338Z"/><path class="cls-22" d="M184.5,336.81,180,333.17a.49.49,0,0,1-.07-.7h0a.55.55,0,0,1,.73,0l4.48,3.65a.47.47,0,0,1,.06.69h0A.54.54,0,0,1,184.5,336.81Z"/><path class="cls-22" d="M181,336.89l4-3.87a.47.47,0,0,0,0-.68h0a.54.54,0,0,0-.72,0l-4,3.87a.47.47,0,0,0,0,.68h0A.53.53,0,0,0,181,336.89Z"/><path class="cls-23" d="M142,142c-3.56-10.37-9.85-18.75-15.76-25.13S160.16,71,192.46,96.92c-4.82,18.35-1.93,32.12-1.93,32.12S145.19,151.16,142,142Z"/><path class="cls-24" d="M212.43,141.63c-10,10-36.56,9.54-48.25,5.09-.81-.54,44.53,5,49.19-16.81C216.19,133.07,216.74,137.32,212.43,141.63Z"/><path class="cls-14" d="M191.51,101.94c.21-1.1.32-1.79,1-4.19-32.3-25.92-72.09,13.56-66.18,19.94.36.39,3.27,3.85,3.63,4.26,1.83-3,3.4-8.79,5.78-7.73,5.15,2.3,27.56,2.44,40.4-10.23,10.59-10.43,13.34,17.68,13.34,17.68l.59-.08A82.22,82.22,0,0,1,191.57,102Z"/><path class="cls-25" d="M138.1,60.62c15.08-5.3,30.72.4,37,15.16,5.51-6.78,31.51-14.36,30.33,7.58s-26.39,16.35-32.3,9.17c-4.34,10.77-28.37,22.73-41,14,.39,9.17-12.61,33.9-29.54,21.94S97.13,90.93,116,95.72C114.07,84.15,118.8,67.4,138.1,60.62Z"/><path class="cls-12" d="M200.36,70.82c8.9,16.33-11,27.75-27.77,16.79-2.47,7.51-21,24.21-42.47,15-1.86,8.76-12,29.64-33.81,17.74-.19-.11-.38-.2-.57-.3a19.36,19.36,0,0,0,6.91,8.45c16.93,12,29.93-12.76,29.54-21.94,12.6,8.78,36.63-3.19,41-14,5.91,7.18,31.12,12.77,32.3-9.17C205.82,76.81,203.67,72.89,200.36,70.82Z"/><path class="cls-26" d="M203.39,137.5S213,151.86,213,156.65s-3.6,11.61-2.12,13.82c3.19,4.79.76,29.09,1.06,32.44.53,5.85-8.51,12.24-13.29,11.17s-25-5.32-30.85-11.7-14.89-31.37-16.48-34-1.58-14.49-1.07-17.55C152.34,138,192,133.36,203.39,137.5Z"/><path class="cls-16" d="M164.17,183.5c-2.39-4.78-6.38-31.7,0-36.89,10,4,37.49,5.78,48.26-5s-8.77-21.13-18.34-15.15c2.39-6.38-8-8-15.56,3.19-6.78,7.18-27.12,13.56-35.9,13.16-13.76,18.75,16.76,43.28,16.76,43.28C161.38,187.69,164.17,183.5,164.17,183.5Z"/><path class="cls-27" d="M213,156.65a6.61,6.61,0,0,0-.23-1.58c-.89.12-1.77.27-2.63.42l-4.92.85c-1.87.33-3.89.73-5.19,2.12a7.32,7.32,0,0,0-1.58,4.64,20.22,20.22,0,0,0,.49,5.7,40.25,40.25,0,0,0,1.82,5.43A80.53,80.53,0,0,0,206,185.82a6.26,6.26,0,0,0,1.93,2.27,6.43,6.43,0,0,0,3.58.66l.95,0c.23-7.53.13-15.68-1.57-18.24C209.36,168.26,213,161.43,213,156.65Z"/><path class="cls-28" d="M144.21,353c-.23-1.37-4.71-1.43-8.32-1.11-.59-.53-.6,1.31-1.43.51-6.81,5.35-23.4-11-24.22-15.95-.2-1.18,3.8-6.22,5.78-9.4a42.33,42.33,0,0,1-2.23-5.28c-4.06,3.8-8.88,8.53-12.88,12.5a230.58,230.58,0,0,0,31.26,23.56,7.68,7.68,0,0,0,.68.6,50.52,50.52,0,0,0,6.07,4C141.7,363.81,144.48,354.63,144.21,353Z"/><path class="cls-24" d="M213,154.52c-4.78.8-10.25,1.68-12,3.39-1,1-.4,3.79.4,4,3.3.83,13.56.2,14-2.19S213,154.52,213,154.52Z"/><path class="cls-24" d="M191,160.3c-1.94-2.8-17.15-5.18-19.55-3.19s-2.7,7.65-.39,7.38c3.39-.4,18.34.2,19.14-1.39S191.44,160.9,191,160.3Z"/><path class="cls-29" d="M204.76,173.13c0,2.36,1.17,4.27,2.62,4.27s2.62-1.91,2.62-4.27-1.17-4.27-2.62-4.27S204.76,170.78,204.76,173.13Z"/><path class="cls-30" d="M212.38,189.65c-3.33-.18-7.57-.35-12.3-.7-21.29,14.41-36.53,1.05-39.45-6.47l-1.11,5.1c2.78,6.19,5.79,12.13,8.24,14.8,5.85,6.38,26.06,10.64,30.85,11.7s13.82-5.32,13.29-11.17C211.77,201.43,212.17,195.84,212.38,189.65Z"/><path class="cls-31" d="M190.1,191.9c.16,4.6,3.31,8,8.8,8.16,4,.08,7.29-3.68,7.45-8.28Z"/><path class="cls-32" d="M198.9,196a7.16,7.16,0,0,0,6.4-4.19l-14.1.1C192.59,194.31,195.21,195.9,198.9,196Z"/><path class="cls-24" d="M198.8,186.62c-2.17.33-6.5-.82-11.34,2.8s-11.65.72-11.78.44c1.82,4.92,7.24,7.86,11.66,7s10.6-5,13.22-4.9,6.64,2.11,10.6.69,4.78-6,4.78-6c-3,2.12-10.69-.58-11.1-.73A58.86,58.86,0,0,0,198.8,186.62Z"/><path class="cls-33" d="M153.74,248c1.25,5.42,11.69,34,12.31,43s5,61,5,61-5.42,2.3-4.17.21c.32-.54-2.09-54.06-3.55-64.08S153.74,248,153.74,248Z"/><path class="cls-34" d="M197.94,157.31l13.69,26.46c-3.59,4.39-14.65,3-14.85,2.43S197.94,157.31,197.94,157.31Z"/><path class="cls-29" d="M181.27,175.26c0,2.65,1.32,4.8,2.95,4.8s2.95-2.15,2.95-4.8-1.32-4.8-2.95-4.8S181.27,172.61,181.27,175.26Z"/><path class="cls-35" d="M115.89,324.29c-2.23,1.95-10.86,13.08-13.36,12.8s-7.8-4.17-7-5.84,18.37-15,18.65-13.36S115.89,324.29,115.89,324.29Z"/><path class="cls-24" d="M209.82,204.05c-.63-1.47-9.64,1-9.23,1.74,3.84,7.18,8.43,10.43,10.6,9.93C212.89,215.33,212.91,211.22,209.82,204.05Z"/><path class="cls-24" d="M164.18,183.5s-2.8,4.19-4.8,2.6c0,0-30.51-24.54-16.75-43.28a20.84,20.84,0,0,0,2.9-.08c-3.06,11.14-.56,29.72,16.77,34.11C162.91,180.69,163.29,181.73,164.18,183.5Z"/><path class="cls-36" d="M158,180.11c-2.39-3.19-9.17-9.57-14-7.38s-4.39,11.77,3,13.76,14.76,1.8,14.56,1.2S158,180.11,158,180.11Z"/><path class="cls-6" d="M152.25,179.63c-2.28-1.95-4.84-3.39-6.43-1.91-2.35,2.19,0,4.7,1.85,5.63C145.9,180,148.5,179.38,152.25,179.63Z"/><path class="cls-24" d="M178.53,129.66c-6.78,7.18-27.12,13.56-35.9,13.16-.16.22-.3.44-.45.66,7.89,1.34,23,0,32.22-7.13,10.61-8.25,8.47-13.54,18.77-14.14C190.44,120.3,183.81,121.88,178.53,129.66Z"/><path class="cls-37" d="M210.38,129.74c-9.74-8.07-30.9,8.35-28.95,13.36S221.52,139,210.38,129.74Z"/><path class="cls-12" d="M299,302.15a5.26,5.26,0,0,1,.83,1.82c0,1.67-1.67,6.12-3.62,6.68-.36.1-1.11-.37-2.07-1.22-27.91,39.08-48.87,21.42-65-7.25,2.25-12.27,4.36-26.39,5.59-39.54-3.76,33.4,12.11,58,32.57,58.87,7.11.29,16.07-5.37,24.21-14.3.4-.44-.71-.6-.31-1a205.77,205.77,0,0,0,23.27-33.08A261.32,261.32,0,0,1,299,302.15Z"/><path class="cls-21" d="M170.58,348.09a.42.42,0,0,1-.42-.38c0-.37-3.63-37.23-4.45-54.3-.46-9.39-4.52-21.13-7.78-30.56-2.78-8-5-14.37-4.17-16.9,1.39-4.41,12.57-8,19.25-10.19,1.6-.51,2.86-.92,3.53-1.2,3.06-1.27,4.54-9,4.61-11.8a.42.42,0,0,1,.43-.41.43.43,0,0,1,.41.43c-.06,2.32-1.44,11-5.13,12.55-.7.29-2,.7-3.59,1.23-6.1,2-17.45,5.64-18.72,9.64-.71,2.27,1.55,8.8,4.17,16.37,3.28,9.49,7.36,21.29,7.82,30.8.83,17.05,4.42,53.89,4.45,54.26a.41.41,0,0,1-.37.45Z"/><path class="cls-14" d="M144.69,327.35c0-12.46-3.22-28.48-4.94-48.22-52.18,18.37-34,37.78-31.52,41.54,2.33,3.5,1.77,3.38,2.69,9.06,2.15-2.4,4.07-4.66,5-5.44,0,0-1.4-4.73-1.67-6.4,0-.28-.58-.13-1.41.29a20.92,20.92,0,0,1,1.27-13.79c2.71-5.65,13.46-10.9,23.69-15.16,2.12,12.82,3.37,25.5,4.09,36.09.6,8.64.84,15.89.95,20.7.09,4.05.07,6.38.07,6.38l4.16,0,65.15-.4s1.17-3.05,3-8.16C169.32,350.62,151.17,334.9,144.69,327.35Z"/><path class="cls-21" d="M139.92,348.07,138,348s-11.75,29.25-17.27,57.88c14.61,14.4,44.9,24.83,55.94,26.65C189,434.5,209,437,225.5,435c-1.93-12.12-5.17-57.06-13.14-79.14,1.15-.72,3.68-3.13,5.25-10.7-39.8,8.91-72.36-6.68-79.32-15.58a50.8,50.8,0,0,0,.84,17.81C139.38,347.62,139.65,347.85,139.92,348.07Z"/><path class="cls-7" d="M217,347.78c-5.36,1.5-23.17,6.54-40.28,3a141.35,141.35,0,0,1-38.84-14.31,44.68,44.68,0,0,0,1.27,11c.25.23.52.46.79.68L138,348l-.78,2.35c1.92,2.18,42.75,26.54,77.08,11.59-.62-2.13-1.27-4.15-1.95-6C213.36,355.23,215.42,353.31,217,347.78Z"/><path class="cls-38" d="M137.18,339c-2.18-1-1.12,10,0,11.41s42.86,21.71,77.65,9.19c3.62-3.62,2.78-10,.84-9.74s-19.53,5.23-39,1.94A145.51,145.51,0,0,1,137.18,339Z"/><path class="cls-7" d="M211.49,388.86l-7-15.61-.93-6.76a2.93,2.93,0,0,0,2.05-1.84c.83-2.79-4.18-5.85-4.18-5.85-5.29,1.67-4.73,5.57-3.34,7l-.1,6.32-7.41,14.83c1.54,1.33,5.35,3,7.14,2.52l-.19,12a10.43,10.43,0,0,0,4.74.83l-.74-32.39,3.8,41,4.17-1.39L207.13,392C208.36,391.86,210,390.13,211.49,388.86Z"/><path class="cls-21" d="M209,388l-7.9-22.38a2.89,2.89,0,0,0,2-1.84c.84-2.78-2.39-5.63-4.17-5.84-5.51-.67-4.74,5.56-3.34,6.95l-7.52,21.16c1.55,1.32,5.35,3,7.15,2.52l-.19,11.95a10.51,10.51,0,0,0,4.73.84L199.07,369l3.79,41,4.18-1.39-2.42-17.46C205.85,391,207.54,389.29,209,388Z"/><path class="cls-36" d="M133.63,352.12c3.62-.55,10.3-.83,10.58.84s-2.51,10.85-5.29,9.46a50.52,50.52,0,0,1-6.07-4,5.85,5.85,0,0,1-2.36-4C130.36,353.26,130.73,352.45,133.63,352.12Z"/><path class="cls-28" d="M133.63,352.12c3.62-.55,10.3-.83,10.58.84s-2.51,10.85-5.29,9.46a50.52,50.52,0,0,1-6.07-4,5.85,5.85,0,0,1-2.36-4C130.36,353.26,130.73,352.45,133.63,352.12Z"/><path class="cls-28" d="M309.88,271q-3.13,3.72-6,6.8c2.63.2,5.34.36,8.11.47q1.22-2.52,2.44-5.18c2.23,2.22,1.95,2.78,4.18,2.5s7.79-4.73,7.79-4.73Z"/><ellipse class="cls-39" cx="325.12" cy="261.9" rx="63.6" ry="10.62"/><path class="cls-40" d="M325.89,270c-32.88,0-60-4.06-64-9.29a2.13,2.13,0,0,0-.39,1.17c0,5.87,28.47,10.62,63.6,10.62s63.59-4.75,63.59-10.62c0,0,0-.07,0-.1C382.07,266.51,356.48,270,325.89,270Z"/><path class="cls-41" d="M322.75,194.59c-64.57.83-53.44,66.06-53.44,66.06,0,3.85,24.42,7,54.55,7s54.56-3.13,54.56-7C379,255.73,386,193.77,322.75,194.59Z"/><path class="cls-42" d="M348.05,198.55c32,31.39,1.42,62.56-35,63.24-18,.33-34-1.12-43.93-2.85.12,1.1.23,1.71.23,1.71,0,3.85,24.42,7,54.55,7s54.56-3.13,54.56-7C378.89,256.52,383.88,212.18,348.05,198.55Z"/><path class="cls-43" d="M325.81,194.45c-2.57.07-5.15,1.83.21,2.17,5.56.36,7-.68,5.15-1.54S325.81,194.45,325.81,194.45Z"/><path class="cls-44" d="M323,195.56a53.3,53.3,0,0,1-2.37-10.85c-.52-3.76,8.91-3.62,8.77,0a48.21,48.21,0,0,1-2,10.71C326.23,196.78,323.15,196,323,195.56Z"/><path class="cls-45" d="M330.68,183.73v0Z"/><path class="cls-46" d="M320.67,184.11a13.1,13.1,0,0,0,4.86.88,26.58,26.58,0,0,0,3.87-.67C328.91,181.28,321.14,181.1,320.67,184.11Z"/><path class="cls-47" d="M320.8,195.42c-10.44.14-31.73,3.62-42.72,21.43a44,44,0,0,0,13.5,2.65C294.5,211.84,310.09,198.9,320.8,195.42Z"/><path class="cls-48" d="M269.07,258.85c.13,1.15.24,1.8.24,1.8,0,3.85,24.42,7,54.55,7s54.56-3.13,54.56-7a78.49,78.49,0,0,0,.49-8.47C370.9,264,295.9,269.59,269.07,258.85Z"/><polygon class="cls-38" points="195.63 364.93 192.01 388.17 188.11 386.08 195.63 364.93"/><path class="cls-38" d="M198.13,365.76c.42.14,1.25,25.61,3.06,25.75s4.46-.28,4.87-.84-6.54-25.19-6.54-25.19Z"/><path class="cls-38" d="M197.85,357.83c-2.92,0-3.75,3.62-3.2,5s3.33.82,4.32,0C200.64,361.45,200.78,357.83,197.85,357.83Z"/><polygon class="cls-38" points="202.86 410.01 204.81 409.46 201.19 392.34 202.86 410.01"/></g></g></svg>