<?xml version="1.0" encoding="utf-8"?>
<!-- Generator: Adobe Illustrator 24.0.1, SVG Export Plug-In . SVG Version: 6.00 Build 0)  -->
<svg version="1.1" xmlns="http://www.w3.org/2000/svg" xmlns:xlink="http://www.w3.org/1999/xlink" x="0px" y="0px"
	 viewBox="0 0 500 500" style="enable-background:new 0 0 500 500;" xml:space="preserve">
<style type="text/css">
	.st0{fill:#E8E8E8;}
	.st1{fill:#5B5B5B;}
	.st2{fill:#172F35;}
	.st3{fill:#AE03FF;}
	.st4{fill:#FFFFFF;}
	.st5{fill:#AFA39A;}
	.st6{fill:#0C4E5F;}
	.st7{fill:#CE7BFF;}
	.st8{fill:#FFC088;}
	.st9{fill:#A6BEBD;}
	.st10{fill:#0E0911;}
	.st11{fill:#8E8E8E;}
	.st12{fill:#C6C6C6;}
	.st13{fill:#E2E2E2;}
	.st14{stroke:#000000;stroke-miterlimit:10;}
	.st15{fill:#020202;}
</style>
<g id="BACKGROUND">
	<rect class="st0" width="500" height="500"/>
</g>
<g id="OBJECT">
	<g>
		<g>
			<circle class="st1" cx="248.37" cy="243.75" r="179.79"/>
		</g>
		<g>
			<path class="st2" d="M207.28,455.91c-2.96-3.52-7.88-4.94-12.47-4.56c-4.58,0.37-8.25,2.42-12.26,4.66
				c-3.5,1.95-4.7,5.13-8.89,6.58l-3.5,1.03c0.44,0.2,2.23,1.13,2.71,1.2c9.49,1.29,19.12,0.84,28.68,0.38
				c2.63-0.13,5.72-0.52,7-2.82C209.7,460.34,208.79,457.7,207.28,455.91z"/>
		</g>
		<g>
			<g>
				<g>
					
						<ellipse transform="matrix(0.2251 -0.9743 0.9743 0.2251 181.4949 395.5994)" class="st3" cx="339.44" cy="83.7" rx="48.7" ry="48.7"/>
				</g>
				<g>
					
						<ellipse transform="matrix(0.2349 -0.972 0.972 0.2349 178.3349 393.9789)" class="st4" cx="339.44" cy="83.7" rx="44.26" ry="44.26"/>
				</g>
				<g>
					<path class="st5" d="M381.19,98.4c0.59-1.67,1.07-3.38,1.46-5.13h-4.33V62.54c-1.45-2.66-3.18-5.16-5.13-7.45v38.19h-60.75
						V73.79h52.81V47.76c-1.63-1.17-3.34-2.24-5.13-3.18v24.1h-34.61V41.69c-1.76,0.58-3.47,1.27-5.13,2.06v24.92h-13.07v16.41
						h-12.09c0.05,1.74,0.2,3.45,0.44,5.13h11.65v23.92c1.59,1.67,3.3,3.22,5.13,4.64V98.4H381.19z"/>
				</g>
				<g>
					<g>
						<polygon class="st6" points="358.52,99.08 339.56,79.02 320.61,99.08 326.4,99.08 326.4,118.67 352.72,118.67 352.72,99.08 
													"/>
					</g>
					<g>
						<path class="st7" d="M348.43,56.97c0,4.99-9.04,13.66-9.04,13.66s-9.04-8.67-9.04-13.66c0-4.99,4.05-9.04,9.04-9.04
							C344.38,47.93,348.43,51.98,348.43,56.97z"/>
					</g>
				</g>
			</g>
			<g>
				<path class="st4" d="M339.44,60.89c2.36,0,4.27-1.91,4.27-4.27c0-2.36-1.91-4.27-4.27-4.27c-2.36,0-4.27,1.91-4.27,4.27
					C335.17,58.98,337.08,60.89,339.44,60.89z"/>
			</g>
		</g>
		<g>
			<g>
				<path class="st2" d="M222.45,145.98c1.09-0.74,2.19-1.85,2.01-3.16c-0.22-1.64-2.19-2.31-3.82-2.58
					c-11.08-1.84-22.47-1.09-33.52,0.95c-11.05,2.04-21.81,5.35-32.55,8.66c-1.85,0.57-4.04,1.55-4.17,3.48
					c-0.08,1.15,0.7,2.22,1.69,2.82c0.99,0.59,2.16,0.79,3.3,0.94c6.85,0.89,13.8,0.37,20.66-0.42c12.53-1.45,24.96-3.8,37.16-7.02
					C216.43,148.79,219.69,147.85,222.45,145.98z"/>
			</g>
			<g>
				<g>
					<g>
						<g>
							<path class="st3" d="M329.46,202.54c-0.56-9.17-1.76-18.43-0.22-27.48c-5.69-0.62-11.38-1.24-17.06-1.87
								c-1.26,5.99-2.77,11.94-4.51,17.81c-0.42-0.86-0.83-1.73-1.21-2.61c-2.32-5.39-3.79-11.1-5.89-16.58
								c-2.1-5.48-4.94-10.86-9.4-14.66c-1.64-1.4-3.77-2.62-5.85-2.07c-1.33,0.35-2.37,1.37-3.24,2.43
								c-2.44,3-3.94,6.64-5.03,10.35c-1.74,5.92-2.5,12.28-1.07,18.28c2.77,11.6,12.92,19.77,18.94,30.06
								c1.64,2.81,3.29,4.9,4.84,7.77c2.73,5.3,2.45,6.36,3.93,8.72c2.82,4.5,9.69,5.75,14.87,4.61c4.72-1.04,5.25-3.39,7.34-7.75
								C329.87,221.27,330.02,211.7,329.46,202.54z"/>
						</g>
						<g>
							<path class="st0" d="M316.32,177.46c0.08-0.27-0.08-0.56-0.35-0.64c-0.27-0.08-0.56,0.08-0.63,0.35
								c-3.99,13.67-6.27,27.83-6.78,42.08c-0.11,3.05-0.12,6.27,0.98,9.2c0.13,0.35,0.28,0.69,0.42,1.03
								c0.46,1.09,0.9,2.12,0.83,3.19c-0.05,0.73-0.56,1.52-1.22,1.86c-0.18,0.1-0.42,0.18-0.68,0.16c0.29-0.65,0.55-1.37,0.58-2.14
								c0.04-0.98-0.41-2.18-1.47-2.63c-0.35-0.15-0.71-0.19-1.02-0.22c-0.19-0.02-0.37-0.04-0.55-0.09
								c-1.48-0.38-1.99-2.37-2.35-4.22c-1.45-7.35-5.22-13.86-8.86-20.15l-3.07-5.3c-0.03,0.43-0.08,0.81-0.17,1.33
								c-0.02,0.1-0.06,0.17-0.1,0.25l2.46,4.24c3.6,6.22,7.33,12.65,8.74,19.83c0.33,1.66,0.87,4.45,3.11,5.01
								c0.22,0.06,0.46,0.09,0.69,0.11c0.27,0.03,0.53,0.06,0.74,0.15c0.61,0.26,0.87,1.04,0.85,1.65
								c-0.03,0.77-0.38,1.53-0.72,2.26c-0.11,0.24-0.03,0.52,0.2,0.65c0.32,0.2,0.68,0.29,1.04,0.29c0.35,0,0.72-0.09,1.08-0.28
								c0.97-0.51,1.7-1.62,1.77-2.71c0.08-1.31-0.42-2.5-0.91-3.65c-0.14-0.33-0.28-0.66-0.41-0.99c-1.04-2.75-1.02-5.85-0.92-8.8
								C310.08,205.13,312.35,191.06,316.32,177.46z"/>
						</g>
						<g>
							<path class="st2" d="M288.05,212.94c2.78-14.49,3.91-29.32,2.92-44.03c2.09,5.82,4.2,11.72,4.78,17.89
								C296.6,196.05,293.79,205.61,288.05,212.94z"/>
						</g>
						<g>
							<path class="st2" d="M313.28,179.95c1.6,1.09,3.51,1.73,5.44,1.83c2.4,0.12,4.78-0.58,6.93-1.64c1.3-0.64,2.62-1.52,3.06-2.9
								c0.3-0.94,0.14-1.96-0.03-2.94c-0.26-1.51-0.52-3.03-0.77-4.54c-0.09-0.51-0.19-1.05-0.52-1.45c-0.45-0.54-1.2-0.7-1.89-0.8
								c-2.82-0.39-5.7-0.31-8.49,0.25c-1.77,0.36-3.69,1.06-4.47,2.69c-0.36,0.75-0.42,1.6-0.47,2.43
								c-0.09,1.35-0.18,2.69-0.26,4.04c-0.03,0.5-0.06,1.01,0.1,1.49C312.14,179.07,312.7,179.55,313.28,179.95z"/>
						</g>
					</g>
				</g>
				<g>
					<g>
						<path class="st8" d="M318.99,150.86c0.26,0.11,0.56,0.02,0.82-0.08c1.75-0.62,3.5-1.24,5.26-1.86
							c-2.01-3.27-4.42-6.3-7.14-9.01c0.19,3.28,0.38,6.56,0.56,9.84C318.51,150.18,318.6,150.7,318.99,150.86z"/>
					</g>
					<g>
						<g>
							<path class="st9" d="M317.23,164.14h-15.11c-0.89,0-1.61-0.72-1.61-1.61v-30.41c0-0.89,0.72-1.61,1.61-1.61h15.11
								c0.89,0,1.61,0.72,1.61,1.61v30.41C318.84,163.42,318.12,164.14,317.23,164.14z"/>
						</g>
						<g>
							<path class="st2" d="M302.19,161.94c0.42,0.81,1.5,0.95,2.41,0.96c3.48,0.06,6.96-0.25,10.43-0.57
								c0.38-0.03,0.79-0.08,1.08-0.32c0.33-0.27,0.45-0.71,0.54-1.13c1.35-5.96,1.68-12.15,0.99-18.22
								c-4.63-0.45-9.26-0.89-13.89-1.34c-0.6-0.06-1.28-0.09-1.71,0.33c-0.41,0.4-0.43,1.04-0.42,1.61
								c0.12,5.83,0.24,11.65,0.36,17.48C301.99,161.16,302,161.58,302.19,161.94z"/>
						</g>
					</g>
					<g>
						<path class="st8" d="M326.49,167.54c-0.05-4.71-0.13-12.72-0.17-17.08c-0.02-2.26-1.77-3.28-3.74-3.8
							c-1.76-0.46-20.48-4.32-20.47-4.36c-0.16,0.95,0.22,1.94,0.81,2.7s1.38,1.35,2.16,1.92c-0.88,0.63-1.77,1.27-2.47,2.1
							c-0.7,0.83-1.19,1.89-1.12,2.97c0.06,1.08,0.78,2.16,1.83,2.43c-0.64,0.83-1.31,1.73-1.39,2.77
							c-0.08,1.05,0.71,2.23,1.75,2.14c-0.39,1.26-0.59,2.57-0.6,3.89c2.55,1.14,4.47,3.59,4.95,6.33c0.64-0.01,1.22-0.47,1.53-1.03
							c0.02-0.04,0.04-0.09,0.06-0.13c1.58,1.46,3.28,2.77,4.52,4.55c4.15,0.63,8.51,0.17,12.31-1.57
							C326.51,170.1,326.5,168.81,326.49,167.54z"/>
					</g>
				</g>
			</g>
			<g>
				<g>
					<path class="st10" d="M135.55,159.8c-6.5,7.08-8.87,17.06-9.47,26.66c-0.87,13.99,1.49,27.99,4.67,41.64
						c2.34,10.04,5.18,20.07,10,29.18c4.83,9.11,11.81,17.32,20.91,22.18c13.84,7.38,30.64,6.16,45.95,2.79
						c15.31-3.38,30.37-8.74,46.05-9.07c5.31-0.11,11.55-0.06,14.7-4.33c2.15-2.91,2.03-6.86,1.79-10.47
						c-0.84-12.82-1.89-25.62-3.17-38.4c-1.26-12.55-2.74-25.17-6.45-37.23c-3.71-12.06-9.79-23.64-19.07-32.18
						c-4.54-4.18-9.89-7.62-15.86-9.2c-6.22-1.64-12.78-1.2-19.19-0.6c-13.83,1.3-27.6,3.29-41.24,5.94
						C154.39,148.79,142.98,151.7,135.55,159.8z"/>
				</g>
				<g>
					<g>
						<path class="st2" d="M127.06,110.09l2.98,36.36c0.39,4.72,4.6,8.13,9.21,7.46l88.26-12.79c4.25-0.62,7.29-4.49,6.93-8.84
							l-2.78-33.6c-0.38-4.62-4.44-8-8.97-7.49l-88.46,10.04C129.87,101.72,126.7,105.65,127.06,110.09z"/>
					</g>
					<g>
						<path class="st9" d="M132.77,111.21l2.88,34.58c0.37,4.49,4.45,7.74,8.91,7.1l85.34-12.16c4.11-0.59,7.04-4.27,6.7-8.41
							l-2.69-31.96c-0.37-4.39-4.29-7.61-8.67-7.12l-85.53,9.54C135.49,103.25,132.42,106.99,132.77,111.21z"/>
					</g>
				</g>
				<g>
					<path class="st2" d="M227.61,152.78c-19.75,1.15-39.37,4.45-58.4,9.81c-1.23,0.35-1.65,1.91-0.75,2.81
						c1.38,1.39,2.68,3.19,3.13,3.83c11.6,16.52,11.33,38.58,11.93,57.88c0.49,15.87-0.07,31.75-0.65,47.62
						c-0.08,2.09-0.02,4.53,1.65,5.78c1.15,0.86,2.7,0.85,4.13,0.81c27.36-0.87,54.65-4.05,81.48-9.49
						c1.4-36.91-1.76-69.65-13.26-97.07c-1.54-3.66-12.25-17.76-15.63-19.85C237.27,152.44,232.28,152.51,227.61,152.78z"/>
				</g>
				<g>
					<path class="st11" d="M169.27,177.74c-1.61-4.13-4.21-8.75-6.94-12.23c-2.73-3.49-6.47-6.34-10.79-7.28
						c-7.53-1.63-15.45,3.09-19.25,9.8c4.77-4.14,11.85-5.02,17.86-3.06c6.01,1.95,10.97,6.42,14.46,11.68
						c3.5,5.26,5.66,11.29,7.39,17.36c7.91,27.67,7.57,57.02,5.28,85.71C181.62,245.35,181.86,210.03,169.27,177.74z"/>
				</g>
			</g>
			<g>
				<rect x="212.75" y="254.25" class="st2" width="75.25" height="16"/>
				<g>
					<path class="st3" d="M290.82,157.55c-0.38-1.39-0.83-2.82-1.83-3.85c-2.09-2.14-5.54-1.74-8.51-2.08
						c-5.5-0.64-10.23-4.38-13.37-8.96c-10.84,4.95-23.47,5.9-33.18-1.91c-1.02,0.95-2.09,1.85-3.2,2.68
						c-5.71,4.28-12.44,7.02-19.29,9.04c-2.38,0.7-4.92,1.4-6.61,3.21c-2.98,3.18-2.16,8.21-1.27,12.48
						c5.69,27.48,5.45,56.17-0.65,83.56c-1,4.51,1.99,8.93,6.54,9.76c27.35,5.03,55.83,3.88,82.68-3.38
						C283.84,225.4,299.66,190.08,290.82,157.55z"/>
				</g>
				<g>
					<path class="st4" d="M251.54,179.48c-5.99,1.92-12.36,2.63-18.63,2.08c-0.01-2.43-0.01-4.85-0.02-7.28
						c6.19-0.51,12.35-1.31,18.46-2.39C251.42,174.42,251.48,176.95,251.54,179.48z"/>
				</g>
				<g>
					<g>
						<path class="st2" d="M251.39,147.65c4.74,5.06,4.87,12.77,4.76,19.7c-0.55,33.58-0.34,67.17,0.63,100.74
							c3-0.26,5.99-0.51,8.99-0.77c-0.71-31.54-1.42-63.08-2.13-94.61c-0.19-8.57-0.4-17.25-2.71-25.51
							C257.75,147.35,254.57,147.5,251.39,147.65z"/>
					</g>
					<g>
						<path class="st9" d="M261.68,226.45c-0.83-17.29-1.68-35.17-0.34-52.9c0.73-9.71-1.16-17.33-3.32-25.22
							c-0.34,0.08-0.67,0.14-1.01,0.2c2.14,7.83,4.03,15.38,3.31,24.94c-1.34,17.78-0.49,35.7,0.34,53.02
							c0.27,5.57,0.54,11.33,0.74,17.03c0.25,7.18,0.51,14.6-0.52,21.81c-0.04,0.28,0.16,0.54,0.44,0.58c0.02,0,0.05,0.01,0.07,0.01
							c0.25,0,0.47-0.18,0.51-0.44c1.04-7.3,0.78-14.77,0.53-21.99C262.22,237.79,261.95,232.02,261.68,226.45z"/>
					</g>
				</g>
				<g>
					<path class="st2" d="M230.96,143.11c5.58,4.35,12.5,6.96,19.56,7.39c7.06,0.43,14.24-1.33,20.31-4.98
						c-1.47-1.25-2.61-2.89-3.27-4.7c-5.19,2.28-10.85,3.76-16.5,3.29c-5.65-0.47-11.28-3.06-14.58-7.67
						C235.26,139.1,233.34,141.42,230.96,143.11z"/>
				</g>
			</g>
			<g>
				<g>
					<path class="st2" d="M256.15,347.76c-1.82,0-8.78,0-10.61,0c-13.44,0-24.34,22.58-24.34,50.43c0,27.85,10.9,50.43,24.34,50.43
						c1.82,0,8.78,0,10.61,0c13.44,0,24.34-22.58,24.34-50.43C280.49,370.34,269.6,347.76,256.15,347.76z"/>
				</g>
				<g>
					<ellipse class="st9" cx="240.53" cy="398.19" rx="11.35" ry="35.54"/>
				</g>
				<g>
					<ellipse class="st2" cx="237.96" cy="391.13" rx="9.51" ry="29.76"/>
				</g>
			</g>
			<g>
				<g>
					<path class="st2" d="M325.41,302.31c-10.02-12.64-25-21.23-40.97-23.49c-15.97-2.26-32.75,1.83-45.89,11.19
						c-4.72,3.36-9.09,7.53-11.4,12.85c-3.39,7.81-1.88,16.77-0.31,25.13c4.15,22.11,8.3,44.21,12.46,66.32
						c0.48,2.57,1.01,5.24,2.56,7.34c2.04,2.76,5.48,4.07,8.78,5.01c24.54,7.04,50.73,1.97,75.74-3.14
						c5.05-1.03,10.61-2.39,13.49-6.66c1.58-2.34,2.09-5.22,2.48-8.01c2-14.11,2.01-28.5,0.03-42.61
						C340.17,330.52,335.28,314.76,325.41,302.31z"/>
				</g>
				<g>
					<path class="st12" d="M242.21,328.2c-3.6-8.98-8.82-20.25-18.82-23.01c-8.44-2.33-17.62,2.09-23.21,8.83
						c-5.59,6.74-8.24,15.39-10.29,23.9c-5.48,22.8-4.31,47.26,3.51,69.37c20.24,2.25,36.57,3.48,57.81,2.59
						c1.28-0.05,1.38-23.19,1.34-25.42c-0.16-8.6-0.97-17.18-2.4-25.66c-1.69-10-3.87-20.4-7.69-30
						C242.38,328.61,242.3,328.41,242.21,328.2z"/>
				</g>
				<g>
					<path class="st2" d="M241.96,334.24c4.48,11.14,4.37,23.71,1.84,35.45c-2.53,11.74-7.35,22.85-12.14,33.86
						c-0.8,1.85-2.29,4.05-4.24,3.53c-1.45-0.39-2.04-2.08-2.4-3.54c-2.75-10.88-5.5-21.82-6.48-33
						c-0.97-11.18-0.09-22.71,4.22-33.08c1.4-3.36,3.27-6.71,6.29-8.73c3.03-2.02,7.47-2.31,10.11,0.2L241.96,334.24z"/>
				</g>
				<g>
					<path class="st12" d="M264.17,404.9c-8.5-0.94-17.83-2.29-23.48-8.72c-1.1,3.51,0.45,7.44,3.04,10.06
						c2.59,2.62,6.07,4.15,9.52,5.41c25.07,9.18,52.79,7.28,79.15,3.06c1.3-3.79-2.98,1.17-1.69-2.62
						C307.49,418.9,288.24,407.56,264.17,404.9z"/>
				</g>
			</g>
			<g>
				<path class="st2" d="M171.19,414.53c12.96,9.28,29.62,13.23,44.86,8.55C201.95,416.42,186.67,412.7,171.19,414.53z"/>
			</g>
			<g>
				<path class="st4" d="M206.97,436.18c0.7-7.39,1.4-14.78,2.1-22.18c-9.3,0.42-18.64-0.15-27.81-1.71
					c-0.54,6.83-1.5,13.62-2.87,20.33C187.91,433.81,197.44,435,206.97,436.18z"/>
			</g>
			<g>
				<path class="st8" d="M368.45,328.13c-5.76-13.68-9.1-28.35-10.97-43.11c-2.21-17.44-2.43-35.07-2.65-52.65
					c-13.39-1.43-27.05-0.31-40.03,3.28c8.87,32.87,19.6,66.97,38.88,96.66C358.65,331.18,363.57,329.67,368.45,328.13z"/>
			</g>
			<g>
				<path class="st6" d="M197.09,424.95c3.13,0.52,6.18,1.94,8.21,4.37c3.5,4.19,3.3,10.26,2.61,15.67
					c-0.69,5.41-1.63,11.22,0.84,16.08c-12.49-0.04-24.98,0.52-37.42,1.7c-1.29-8.81-0.76-18.23,3.64-25.97
					C179.39,429.07,188.31,423.5,197.09,424.95z"/>
			</g>
			<g>
				<path d="M193.77,423.95c-1.55,0.16-3.23,0.64-4.07,1.96c-0.45,0.71-0.59,1.56-0.69,2.39c-0.72,5.85-0.08,11.87,1.84,17.44
					c0.29,0.85,0.69,1.77,1.51,2.14c0.54,0.24,1.16,0.19,1.75,0.16c3.94-0.24,7.94,0.38,11.62,1.8c-0.41-5.82-0.21-11.69,0.61-17.47
					c0.22-1.56,0.46-3.28-0.38-4.62c-0.5-0.8-1.31-1.34-2.13-1.79C200.8,424.3,197.23,423.59,193.77,423.95z"/>
			</g>
			<g>
				<path class="st9" d="M176.7,438.55c0.85-1.02,2.03-2,3.34-1.81c1.09,0.16,1.9,1.11,2.42,2.08c1.05,1.98,1.34,4.26,1.87,6.44
					c0.54,2.18,1.45,4.43,3.32,5.67c-3.42,2.79-7.51,4.77-11.82,5.73c-0.84,0.19-1.72,0.34-2.57,0.18
					c-0.85-0.16-1.68-0.68-1.99-1.48c-0.26-0.67-0.13-1.41,0-2.12C172.25,448.06,173.33,442.62,176.7,438.55z"/>
			</g>
			<g>
				<path class="st11" d="M209.72,456.05c-0.18-3.96-1.15-8.25-4.25-10.72c-3.66-2.91-9.09-2.28-13.28-0.19
					c-3.2,1.6-5.98,3.9-8.98,5.86c-3,1.95-6.37,3.6-9.94,3.59c-1.14,0-2.39-0.14-3.3,0.55c-1.03,0.77-1.15,2.24-1.19,3.52
					c-0.04,1.44-0.04,3.01,0.87,4.12c0.96,1.19,2.64,1.48,4.16,1.64c9.73,1.05,19.55,0.41,29.31-0.23c1.43-0.09,2.93-0.21,4.13-0.99
					C209.48,461.76,209.84,458.69,209.72,456.05z"/>
			</g>
			<g>
				<g>
					<path class="st2" d="M276.18,98.36c3.15,10.92,1.08,23.22-5.46,32.51c-1.37,1.95-3,3.82-5.16,4.83
						c-3.99,1.87-8.67,0.37-12.81-1.14c-4.66-1.7-9.5-3.52-12.91-7.13c-3.21-3.4-4.77-8.05-5.55-12.66
						c-0.92-5.51-0.77-11.47,2.1-16.26c3.57-5.97,10.77-9,17.72-9.34c6.95-0.34,13.78,1.58,20.47,3.49L276.18,98.36z"/>
				</g>
				<g>
					<g>
						<path class="st8" d="M268.18,144.11c-0.52-0.66-1.02-1.34-1.47-2.04c-3.13-4.85-4.76-10.48-6.35-16.03
							c-5.81,0.09-11.63,0.17-17.44,0.26c-1.22,4.66-3.75,8.87-7.02,12.44C244.82,145.65,257.28,146.36,268.18,144.11z"/>
					</g>
					<g>
						<path class="st8" d="M274.46,110.97c-0.04-0.21-0.08-0.41-0.13-0.62c-0.34-1.53-1.04-3.35-0.25-4.87
							c1.22-2.37,1.03-2.95-0.56-7.85l-1.71-3.82c-3.97-4.3-9.98-6.35-15.84-6.41c-5.86-0.06-11.6,1.68-16.98,3.98
							c-1.79,0.77-3.74,1.79-4.34,3.65c-0.34,1.06-0.18,2.2,0,3.29c0.71,4.35,1.57,8.68,2.43,13c0.69,3.48,1.4,7.02,3.05,10.17
							c2.09,3.99,5.52,7.08,8.89,10.08c1.37,1.22,2.77,2.46,4.44,3.21c3.19,1.43,7.05,0.84,10.07-0.93c3.02-1.77,5.29-4.6,7.04-7.64
							c1.87-3.25,3.22-6.8,3.97-10.47C274.86,114.17,274.76,112.55,274.46,110.97z"/>
					</g>
					<g>
						<g>
							<path class="st6" d="M249.01,106.84c2.16-2.22,4.92-3.24,7.87-3c0.11-0.45,0.33-0.88,0.65-1.22
								c-3.4-0.41-6.93,1.07-9.17,3.67C248.62,106.42,248.83,106.62,249.01,106.84z"/>
							<g>
								<path class="st6" d="M253.95,111.56c-0.31,0.03-0.64,0.05-0.91-0.11c-0.25-0.14-0.4-0.41-0.49-0.68
									c-0.19-0.53-0.2-1.11-0.05-1.65c0.16-0.53,0.49-1.01,0.97-1.28c0.48-0.27,1.11-0.28,1.56,0.02c0.56,0.37,0.75,1.1,0.82,1.77
									c0.04,0.31,0.06,0.64-0.06,0.93c-0.13,0.34-0.44,0.6-0.78,0.75C254.69,111.47,254.32,111.52,253.95,111.56z"/>
								<path class="st2" d="M255.17,109.35c-0.18-0.31-0.51-0.6-0.87-0.53c-0.38,0.08-0.57,0.5-0.63,0.88
									c-0.04,0.27-0.05,0.55,0.04,0.81c0.09,0.26,0.28,0.49,0.54,0.58c0.4,0.14,0.87-0.13,1.04-0.51
									C255.47,110.19,255.38,109.72,255.17,109.35z"/>
								<path class="st4" d="M253.55,109.66c0.13,0.01,0.25-0.06,0.34-0.16c0.17-0.19,0.21-0.52,0.02-0.68
									c-0.12-0.1-0.3-0.11-0.43-0.04c-0.14,0.07-0.23,0.21-0.26,0.36C253.17,109.37,253.31,109.65,253.55,109.66z"/>
							</g>
						</g>
						<g>
							<path class="st6" d="M270.27,103.77c1.18,0,2.21,0.7,2.72,1.69c0.01,0.01,0.01,0.02,0.02,0.03c0.22-0.08,0.37-0.34,0.34-0.59
								c-0.03-0.3-0.23-0.55-0.43-0.77c-0.41-0.45-0.89-0.85-1.44-1.11s-1.19-0.37-1.78-0.23c-0.39,0.09-0.78,0.31-0.96,0.67
								c-0.11,0.23-0.1,0.51,0.01,0.73C269.2,103.93,269.72,103.77,270.27,103.77z"/>
							<g>
								<path class="st6" d="M269.96,109.15c-0.04-0.38,0.11-0.77,0.32-1.09c0.3-0.46,0.83-0.85,1.37-0.73
									c0.36,0.08,0.64,0.38,0.79,0.72c0.15,0.34,0.19,0.72,0.21,1.09c0.03,0.45,0.03,0.97-0.32,1.25c-0.3,0.24-0.73,0.2-1.09,0.09
									C270.63,110.28,270.03,109.8,269.96,109.15z"/>
								<path class="st2" d="M271.92,108.5c-0.15-0.17-0.37-0.32-0.58-0.25c-0.16,0.06-0.26,0.23-0.32,0.39
									c-0.1,0.25-0.17,0.52-0.13,0.78c0.04,0.26,0.21,0.52,0.47,0.6c0.35,0.11,0.74-0.16,0.84-0.51
									C272.29,109.16,272.16,108.78,271.92,108.5z"/>
								<path class="st4" d="M271.05,108.73c0.1,0.01,0.19-0.05,0.26-0.12c0.13-0.14,0.16-0.4,0.01-0.52
									c-0.09-0.07-0.22-0.08-0.33-0.03c-0.1,0.05-0.17,0.16-0.2,0.27C270.76,108.51,270.87,108.72,271.05,108.73z"/>
							</g>
						</g>
					</g>
				</g>
				<g>
					<g>
						<path class="st2" d="M271.85,110.79c-3.22-1.86-9.06-1.06-12.54-0.47c-3.48,0.59-7.65,2.68-10.79,4.29
							c-0.88,0.45-1.8,0.99-2.17,1.9c-0.22,0.53-0.22,1.11-0.22,1.68c0.02,2.92,0.16,5.84,0.4,8.74c0.08,0.95,0.18,1.91,0.57,2.78
							c0.41,0.89,1.1,1.6,1.84,2.25c1.12,0.99,2.38,1.85,3.79,2.35c2.27,0.81,8.42,2.13,10.66,1.25c2.24-0.88,2.04-0.97,3.67-2.73
							c3.25-3.5,5.78-7.09,7.52-11.54c0.77-1.97,1.63-5.48,0.85-6.58C274.85,113.9,272.73,111.3,271.85,110.79z"/>
					</g>
					<g>
						<path class="st4" d="M261.7,111.07c-4.99,0.38-9.82,2.44-13.58,5.73c0.48,4.8,0.6,9.07,1.23,13.87
							c0.58,1.06,1.8,2.74,2.63,3.36c2.61,1.96,5.2,2.41,8.43,2.91c5.09,0.78,8.49-2.51,11.28-6.84c2.79-4.33,3.99-10.52,4.53-15.64
							C271.66,110.81,267.52,110.63,261.7,111.07z"/>
					</g>
					<g>
						<path class="st4" d="M248.86,118.29c-3.98-2.13-6.62-3.61-9.17-5.05l-1.58-0.89l0.5-0.89l1.58,0.89
							c2.55,1.44,5.19,2.92,9.16,5.04L248.86,118.29z"/>
					</g>
					<g>
						
							<rect x="244.72" y="120.4" transform="matrix(0.438 -0.899 0.899 0.438 24.5895 291.2545)" class="st4" width="1.03" height="11.12"/>
					</g>
				</g>
				<g>
					<g>
						<path class="st2" d="M244.76,104.9c4.74-3.8,20.38-2.91,30.04-3.63c-0.2-0.95-0.67-1.76-1.27-3.63l-1.71-3.82
							c-3.97-4.3-9.98-6.35-15.84-6.41c-5.86-0.06-11.6,1.68-16.98,3.98c-1.79,0.77-3.74,1.79-4.34,3.65c-0.34,1.06-0.18,2.2,0,3.29
							c0.71,4.35,1.57,8.68,2.43,13c0.69,3.48,1.4,7.02,3.05,10.17c0.64,1.22,1.41,2.35,2.26,3.42
							C241.1,117.06,240.01,109.65,244.76,104.9z"/>
					</g>
					<g>
						<g>
							<path class="st12" d="M244.15,75.03c-5.58,1.52-10.91,4.45-14.54,8.95c-3.72,4.61-5.43,10.54-6.07,16.43
								c-0.59,5.34-0.35,10.84,1.36,15.94c1.82,5.44,5.41,10.4,10.48,13.14c0.86,0.46,1.83,0.76,2.8,0.63
								c2.69-0.36,3.22-3.11,3.32-5.41c0.22-5.17-0.21-10.84-1.38-16.17c-0.85-3.85,1.96-7.56,5.9-7.74
								c10.67-0.5,21.26-0.61,31.98-1.37c0.5-0.04,1.03-0.09,1.4-0.42c0.44-0.4,0.5-1.06,0.5-1.65c0.03-8.13-5.05-15.84-12.1-19.87
								C260.72,73.46,251.99,72.9,244.15,75.03z"/>
						</g>
						<g>
							<path class="st9" d="M237.34,130.32c-0.67,0-1.28-0.22-1.74-0.63c-0.21-0.19-0.23-0.51-0.04-0.72
								c0.19-0.21,0.51-0.23,0.72-0.04c0.38,0.34,0.86,0.39,1.19,0.37c0.65-0.04,1.32-0.38,1.75-0.88c0.81-0.94,1.04-2.27,1.17-3.57
								c0.37-3.76,0.08-7.52-0.87-11.17c-0.1-0.39-0.21-0.78-0.32-1.17c-0.74-2.68-1.5-5.45-0.41-8.04
								c0.82-1.94,2.69-3.52,5.14-4.33c2.14-0.71,4.38-0.79,6.56-0.87l23.42-0.86c2-0.07,4.26-0.16,6.13-1.09
								c0.25-0.13,0.56-0.02,0.69,0.23c0.13,0.25,0.02,0.56-0.23,0.69c-2.07,1.03-4.45,1.12-6.55,1.2l-23.42,0.86
								c-2.1,0.08-4.27,0.16-6.27,0.82c-2.16,0.72-3.81,2.09-4.51,3.76c-0.95,2.26-0.24,4.86,0.45,7.37
								c0.11,0.4,0.22,0.79,0.32,1.18c0.98,3.77,1.28,7.65,0.9,11.53c-0.14,1.4-0.41,2.98-1.42,4.14c-0.61,0.71-1.53,1.17-2.46,1.23
								C237.47,130.32,237.4,130.32,237.34,130.32z"/>
						</g>
						<g>
							<path class="st13" d="M257.97,75.81c-9.32-2.04-19.65,1.43-25.84,8.7c-6.19,7.26-7.99,18.01-4.49,26.89
								c-1.61-7.57-0.04-15.76,4.26-22.2c4.3-6.43,11.28-11.01,18.89-12.41L257.97,75.81z"/>
						</g>
					</g>
				</g>
			</g>
			<g>
				<g>
					<path class="st2" d="M215.43,161.11c1.24-0.79,2.95-0.48,4.14,0.4c1.18,0.88,1.93,2.21,2.56,3.55
						c3.32,7.15,3.81,15.35,2.76,23.16c-1.06,7.81-3.58,15.34-6.09,22.81c9.49,5.82,19.44,10.88,29.74,15.11
						c-16.52,3.56-34.24,1.28-49.32-6.35c9.68-16.25,11.3-35.83,14.26-54.51C213.72,163.71,214.1,161.96,215.43,161.11z"/>
				</g>
				<g>
					<path class="st3" d="M227.3,246.79c4.36,1.1,9.11,2.01,13.25,0.25c3.37-1.43,5.79-4.42,7.97-7.36
						c2.22-3.01,4.43-6.91,2.79-10.27c-1.48-3.03-5.28-3.94-8.57-4.69c-10.23-2.34-20.03-6.53-28.78-12.33
						c1.39-7,4.31-13.58,6.71-20.29c2.4-6.72,4.31-13.82,3.57-20.91s-4.61-14.22-11.11-17.16c-2.15-0.97-4.62-1.46-6.87-0.77
						c-3.18,0.97-5.23,4-6.87,6.9c-10.02,17.81-8.42,36.45-14.31,58.95c-0.87,3.31,0.04,7.03,1.78,9.98
						c1.94,3.29,5.57,5.15,9.05,6.73C206.02,240.42,216.54,244.09,227.3,246.79z"/>
				</g>
				<g>
					<path class="st2" d="M239.46,239.91c-0.34,2.04-0.2,4.36,1.23,5.86c0.96,1,2.34,1.47,3.66,1.89c1.18,0.38,2.41,0.77,3.63,0.57
						c1.27-0.21,2.35-1.02,3.28-1.91c2.35-2.25,4.05-5.17,4.85-8.33c0.45-1.78,0.6-3.75-0.27-5.36c-0.83-1.54-2.49-2.5-4.2-2.85
						c-2.89-0.59-5.99,0.45-8.18,2.43S239.94,237,239.46,239.91z"/>
				</g>
				<g>
					<path class="st0" d="M239,246.96c-0.19,0-0.37-0.1-0.46-0.28c-0.55-1.07-1.23-1.01-2.6-0.8c-0.96,0.15-2.06,0.32-3.25-0.09
						c-4.47-1.53-9.18-2.59-13.73-3.62c-4.48-1.01-9.11-2.05-13.54-3.55c-8.39-2.83-16.69-6.72-20.59-15.95
						c-0.11-0.26,0.01-0.56,0.27-0.67c0.26-0.11,0.56,0.01,0.67,0.27c3.74,8.85,11.81,12.62,19.98,15.38
						c4.38,1.48,8.99,2.52,13.44,3.52c4.58,1.03,9.31,2.1,13.83,3.65c0.96,0.33,1.88,0.19,2.76,0.05c1.29-0.2,2.76-0.43,3.67,1.34
						c0.13,0.25,0.03,0.56-0.22,0.69C239.15,246.94,239.07,246.96,239,246.96z"/>
				</g>
			</g>
			<g>
				<path class="st2" d="M187.87,434.44c3.03-1.6,6.4-2.76,9.87-2.87c3.48-0.11,7.07,0.9,9.58,3.17c0.83,0.75,1.32,2,1.4,3.16
					c0.02,0.33-0.39,0.5-0.63,0.27c-2.76-2.65-6.52-4.36-10.47-4.18c-4.25,0.19-8.32,1.98-11.48,4.65c-0.81-0.5-0.89-1.64-0.43-2.44
					C186.17,435.4,187.03,434.89,187.87,434.44z"/>
			</g>
			<g>
				<path class="st2" d="M188.06,438c3.03-1.6,6.4-2.76,9.87-2.87c3.48-0.11,7.07,0.9,9.58,3.17c0.83,0.75,1.32,2,1.4,3.16
					c0.02,0.33-0.39,0.5-0.63,0.27c-2.76-2.65-6.52-4.36-10.47-4.18c-4.25,0.19-8.32,1.98-11.48,4.65c-0.81-0.5-0.89-1.64-0.43-2.44
					C186.36,438.96,187.22,438.44,188.06,438z"/>
			</g>
			<g>
				<path class="st2" d="M186.73,444.29c2.53-2.83,6.23-4.55,10.02-4.83c3.79-0.28,7.64,0.85,10.79,2.98
					c0.59,0.4,1.18,0.86,1.44,1.52c0.26,0.66,0.04,1.55-0.62,1.81c-2.99-2.19-6.66-3.44-10.37-3.53c-3.71-0.09-7.43,0.97-10.54,3
					c-0.28,0.18-0.65,0.37-0.91,0.18C186.18,445.17,186.44,444.61,186.73,444.29z"/>
			</g>
			<g>
				<g>
					<path class="st14" d="M263.69,266.09h-33.27c-6.87,1.15-15.79-2.2-20.83,2.11c-7.92,6.78-9.62,23.16-8.37,32.87
						c0.23,1.75,0.66,3.57,1.91,4.93c2.56,2.78,7.27,2.64,11.31,2.65c7.44,0.02,14.88,1.41,21.7,4.06
						c4.06,1.58,8.38,3.65,12.67,2.66c3.23-0.74,5.64-3.08,7.85-5.3c5.16-5.21,10.37-10.56,13.53-16.91
						c3.16-6.35,4.01-13.98,0.4-20.14C268.96,270.24,266.54,267.94,263.69,266.09z"/>
				</g>
				<g>
					<path class="st15" d="M257.21,277.36c-2.1-2.52-4.67-5.19-7.95-5.24c-2.45-0.04-4.64,1.43-6.57,2.92
						c-13.48,10.41-23.2,24.88-31.68,39.65c-17.91,31.18-31.39,64.9-39.92,99.83c15.16,1.71,30.19,4.59,44.91,8.61
						c10.99-38.06,22.15-76.54,41.81-110.93c3.83-6.71,8.14-14.02,6.81-21.63C263.74,285.55,260.49,281.29,257.21,277.36z"/>
				</g>
				<g>
					<path class="st2" d="M202.81,305.52c1.9,2.59,5.42,3.66,8.59,3.15c3.17-0.52,5.98-2.42,8.16-4.77
						c2.19-2.35,3.82-5.15,5.44-7.92C219.17,301.8,211.06,305.29,202.81,305.52z"/>
				</g>
				<g>
					<path class="st0" d="M176.27,415.48c-0.04,0-0.09-0.01-0.13-0.02c-0.27-0.07-0.44-0.35-0.36-0.63
						c7.49-28.06,19.05-57.46,35.32-89.89c4.11-8.19,8.77-16.56,16.53-21.02c0.29-0.16,0.46-0.44,0.49-0.77
						c0.02-0.31-0.1-0.6-0.35-0.79l-1.29-1.01c-0.62-0.49-0.95-1.25-0.87-2.04c0.07-0.77,0.52-1.44,1.2-1.79
						c2.58-1.34,5.35-2.26,8.21-2.74c-1.73-0.37-3.5-0.48-5.27-0.33c-0.54,0.04-1.05-0.27-1.25-0.79c-0.2-0.52-0.04-1.09,0.4-1.43
						c1.86-1.42,3.87-2.63,5.98-3.62l-18.13,3.45c-2.86,0.54-5.82,1.11-8.8,0.65c-3.41-0.52-5.89-2.21-6.97-4.76
						c-0.11-0.26,0.01-0.56,0.27-0.67c0.26-0.11,0.56,0.01,0.67,0.27c1.2,2.83,4.02,3.82,6.18,4.15c2.81,0.43,5.68-0.12,8.45-0.65
						l26.08-4.97c0.28-0.05,0.55,0.13,0.6,0.41c0.05,0.28-0.13,0.55-0.41,0.6c-4.8,0.91-9.4,2.97-13.31,5.95
						c-0.11,0.08-0.09,0.19-0.06,0.24c0.02,0.06,0.08,0.15,0.21,0.14c1.87-0.16,3.74-0.04,5.57,0.34c0.49,0.1,0.83,0.53,0.82,1.03
						s-0.37,0.91-0.87,0.99c-2.76,0.46-5.42,1.35-7.91,2.64c-0.37,0.19-0.61,0.55-0.65,0.98c-0.04,0.44,0.14,0.87,0.49,1.14
						l1.29,1.01c0.51,0.4,0.78,1.03,0.74,1.67c-0.05,0.66-0.42,1.25-1,1.58c-7.51,4.31-12.09,12.54-16.13,20.59
						c-16.24,32.37-27.77,61.71-35.24,89.7C176.7,415.33,176.5,415.48,176.27,415.48z"/>
				</g>
			</g>
			<g>
				<g>
					<g>
						<g>
							<path class="st12" d="M388.88,269.1c-2.3-7.44-4.79-15.19-10.28-20.72c-7.36-7.4-18.56-9.26-28.98-9.74
								c-20.46-0.95-41.44,2.06-59.7,11.33c-6.29,3.19-12.34,7.22-16.46,12.94c-5.23,7.26-6.82,16.5-7.42,25.43
								c-2.07,31.03,6.16,61.71,9.66,92.62c1.04,9.21,1.38,19.47-4.44,26.7c-1.79,2.22-4.26,4.92-2.99,7.48
								c0.93,1.88,3.37,2.33,5.46,2.53c30.55,3,62.24,3.1,90.94-7.8c16.22-6.16,31.77-16.48,39.43-32.04
								c5.35-10.88,6.4-23.48,5.05-35.53c-1.34-12.05-4.95-23.72-8.53-35.3C396.7,294.36,392.79,281.73,388.88,269.1z"/>
						</g>
						<g>
							<path class="st2" d="M393.4,352.71c-5.43-10.58-15.2-19.45-26.94-21.37c-10.81-1.77-22.06,2.58-30.14,9.96
								c-8.08,7.39-13.26,17.51-16.37,28.02c-3.11,10.5-4.28,21.46-5.42,32.35c-0.49,4.7-0.68,10.22,2.92,13.29
								c3.22,2.74,8,2.23,12.15,1.41c14.04-2.77,27.73-7.26,40.69-13.32c11.2-5.24,22.69-12.66,26.42-24.45
								C399.42,370.09,397.48,360.65,393.4,352.71z"/>
						</g>
						<g>
							<path class="st4" d="M290.57,265.42c-1.27-2.17-4.2-2.6-6.07-0.93c-5.74,5.1-9.01,12.91-9.9,20.65
								c-1.11,9.65,0.93,19.36,2.96,28.85c6.79-1.09,3.92-0.63,10.71-1.73c-0.76-6.57-1.21-13.27,0.1-19.75
								c1.12-5.55,3.69-10.98,7.79-14.8c1.26-1.17,1.32-3.11,0.18-4.39C294.16,270.9,292.22,268.25,290.57,265.42z"/>
						</g>
						<g>
							<path class="st4" d="M375.51,258c-0.11,1.49-0.38,2.97-0.8,4.41c-0.33,1.14-0.01,2.37,0.86,3.17
								c5.1,4.68,8.99,10.68,11.13,17.26c1.01,0.32,2.08-0.54,2.4-1.55c0.32-1.01,0.09-2.1-0.15-3.13
								c-1.55-6.89-5.8-15.34-10.86-21.07C377.23,256.08,375.61,256.68,375.51,258z"/>
						</g>
						<g>
							<path class="st13" d="M277.9,369.8c0.93-14.4-2.08-28.72-4.6-42.93c-2.52-14.21-4.57-28.85-1.74-43
								c2.83-14.15,11.4-27.92,24.76-33.37c-14.07,4.32-22.69,16.68-26.19,30.98c-3.5,14.3-2.04,30.31,0.9,44.73
								C273.96,340.63,277.17,355.1,277.9,369.8z"/>
						</g>
					</g>
					<g>
						<path class="st2" d="M355,244.43c-0.07-4-0.12-8-0.17-12c-14.64-1.56-29.58-0.33-43.77,3.59c0.85,3.14,1.72,6.29,2.6,9.45
							c3.68,19.07,22.13,92.2,22.13,92.2l18.39-4.4l-23.99-84.21C338.54,248.37,346.86,246.78,355,244.43z"/>
						<g>
							<path class="st13" d="M355,243.35c-12.02,3.47-24.44,5.14-36.82,4.47c8.27,29.02,18.6,58.46,35.51,84.51
								c4.96-1.14,9.88-2.66,14.76-4.19c-5.76-13.68-9.1-28.35-10.97-43.11C355.74,271.21,355.24,257.28,355,243.35z"/>
						</g>
					</g>
				</g>
				<g>
					<g>
						<g>
							<path class="st2" d="M390.5,219.79c0,2.9-1.72,5.26-3.85,5.26c-2.12,0-3.85-2.35-3.85-5.26c0-2.9,1.72-5.26,3.85-5.26
								C388.78,214.53,390.5,216.88,390.5,219.79z"/>
						</g>
						<g>
							<path class="st2" d="M402.08,222.2c-0.36,0.86-1.25,1.4-2.16,1.59c-0.91,0.19-1.86,0.08-2.78-0.03
								c-4.55-0.55-9.1-1.1-13.66-1.65c0.11-1.67,0.22-3.33,0.33-5c4.27,0.24,8.53,0.49,12.8,0.73c1.37,0.08,2.81,0.17,3.99,0.88
								C401.78,219.42,402.61,220.93,402.08,222.2z"/>
						</g>
					</g>
					<g>
						<g>
							<path class="st12" d="M385.54,214.95c-6.06,0.55-10.72-1.35-15.09-5.58c-2.6-2.51-4.59-5.71-7.67-7.6
								c-5.05-3.1-11.49-1.88-17.38-1.27c-8.71,0.9-17.85,0.3-25.84,3.87c-5.9,2.64-10.59,7.3-15.61,11.37
								c-8.66,7.01-18.62,12.39-29.21,15.85c1.94,2.15,3.39,4.78,4.43,7.59c8.49-1.73,17.39-1.93,26.09-1.6
								c13.55,0.51,27.15,2.17,40.63,0.66c5.54-0.62,11.12-1.81,15.98-4.54c3.93-2.2,7.26-5.34,11.09-7.71
								c3.83-2.38,7.29-3.54,11.6-2.23C387.29,221.82,387.51,217.11,385.54,214.95z"/>
						</g>
						<g>
							<path class="st13" d="M305.76,221.25c0.53-0.11,1.05-0.3,1.5-0.62c2.19-1.56,1.68-5.14,3.52-7.11
								c-3.61,2.76-7.22,5.51-10.83,8.27C301.7,220.92,303.84,221.64,305.76,221.25z"/>
						</g>
					</g>
					<g>
						<path class="st4" d="M287.78,246.28c1.09-0.49,1.68-1.71,1.36-2.86c-0.28-1.02-0.36-2.09-0.22-3.13
							c0.16-1.22,0.62-2.4,0.61-3.63c-0.01-1.78-0.99-3.41-2.03-4.86c-0.77-1.07-1.63-2.13-2.83-2.68c-1.8-0.81-3.89-0.26-5.79,0.3
							c-1.23,0.37-2.64,0.91-2.98,2.15c-0.15,0.57-0.03,1.18,0.13,1.75c0.67,2.28,2.06,4.35,3.92,5.82c1.16,0.92,2.6,1.77,2.89,3.22
							c0.21,1.07-0.3,2.17-1.06,2.95c-0.76,0.78-1.74,1.3-2.68,1.83c-7.68,4.38-14.09,10.74-19.51,17.73
							c-0.14,0.18-0.28,0.37-0.4,0.57c-0.02,0.02-0.04,0.04-0.05,0.07c-0.31,0.46-0.56,0.99-0.52,1.54c0.07,0.94,0.98,1.61,1.9,1.83
							c0.68,0.16,1.55,0.06,1.84-0.58c0.2-0.44,0.04-0.95-0.06-1.42c-0.1-0.46-0.15-0.94-0.14-1.41
							C269.17,257.33,277.98,250.72,287.78,246.28z"/>
					</g>
					<g>
						<g>
							<path class="st4" d="M364.52,226.61c2.22-3.55,1.98-8.07,1.25-12.19c-0.53-2.99-1.35-6.15-3.62-8.16
								c-2.1-1.85-5.03-2.37-7.82-2.65c-8.8-0.87-17.77-0.06-26.27,2.39c-5.28,1.52-10.84,4.07-13.17,9.05
								c-2.45,5.24-0.9,13.01,3.37,16.91c4.27,3.9,10.11,3.63,15.89,3.76c6.75,0.16,14.08-0.91,20.53-2.92
								C361.48,230.67,362.45,229.91,364.52,226.61z"/>
						</g>
						<g>
							<path class="st2" d="M356.73,205.18c2.8,2.83,4.43,6.65,5.25,10.55c0.82,3.9,0.88,7.91,0.95,11.89
								c2.37-5.67,2.37-12.28,0.01-17.94c-0.54-1.3-1.22-2.58-2.29-3.51C359.58,205.25,358.07,204.75,356.73,205.18z"/>
						</g>
					</g>
					<g>
						<path class="st4" d="M386.2,227.64c0.69,0.25,1.45,0.04,2.18,0.07c5.66,0.28,10.33-0.19,14.94,1.99
							c-0.29,0.14-0.45,1.13-0.27,1.4c0.52,0.6,1.64,0.21,1.88-0.55c0.24-0.76-0.22-1.59-0.87-2.05c-0.65-0.45-1.89-1.05-2.67-1.2
							c-4.56-0.85-8.69-1.25-13.25-2.1c-1.2-0.38-1.58-1.93-1.36-3.17c0.22-1.24,0.84-2.41,0.86-3.67c0.02-2.03-1.87-3.8-3.86-3.9
							c-0.49-0.02-0.87,0.46-0.69,0.93c0.99,2.59,0.72,5.63-0.68,8.03c-0.26,0.45-0.12,1.03,0.34,1.27
							C383.96,225.32,384.79,227.13,386.2,227.64z"/>
					</g>
					<g>
						<g>
							
								<ellipse transform="matrix(0.925 -0.38 0.38 0.925 -40.3889 160.3757)" class="st4" cx="386.01" cy="182.49" rx="11.54" ry="11.54"/>
						</g>
						<g>
							<path class="st4" d="M385.21,218.01c-0.49,0-0.93-0.36-1.01-0.86l-2.29-14.24c-0.27-1.7-0.13-3.47,0.42-5.1l4.37-12.95
								c0.18-0.54,0.76-0.82,1.3-0.64c0.54,0.18,0.83,0.76,0.64,1.3l-4.37,12.95c-0.44,1.32-0.56,2.74-0.34,4.12l2.29,14.24
								c0.09,0.56-0.29,1.09-0.85,1.18C385.32,218,385.27,218.01,385.21,218.01z"/>
						</g>
					</g>
					<g>
						<g>
							<circle class="st4" cx="255.79" cy="198.89" r="14.61"/>
						</g>
						<g>
							<path class="st4" d="M282.02,232.9c-0.46,0-0.88-0.32-1-0.79l-4.46-18.72c-0.46-1.94-1.73-3.6-3.48-4.55l-15.64-8.53
								c-0.5-0.27-0.68-0.89-0.41-1.39c0.27-0.5,0.9-0.68,1.39-0.41l15.64,8.53c2.26,1.23,3.9,3.38,4.5,5.88l4.46,18.72
								c0.13,0.55-0.21,1.1-0.76,1.24C282.18,232.89,282.1,232.9,282.02,232.9z"/>
						</g>
					</g>
					<g>
						<g>
							<path class="st2" d="M240.91,244.42c0.79,1.93,1.57,3.86,2.36,5.79c11.1-4.68,22.52-8.59,34.16-11.7
								c-0.7-2.16-1.74-4.2-3.08-6.03C263.21,236.46,252.06,240.44,240.91,244.42z"/>
						</g>
						<g>
							<path class="st2" d="M270.65,233.07c-0.09-1.34,0.92-2.62,2.19-3.06c1.27-0.44,2.72-0.13,3.87,0.58
								c1.14,0.71,2.01,1.8,2.71,2.95c0.86,1.43,1.5,3.04,1.59,4.71c0.04,0.76-0.25,1.67-0.68,2.55c-0.91,1.84-3.35,2.32-4.85,0.92
								C273.02,239.43,270.82,235.52,270.65,233.07z"/>
						</g>
						<g>
							<path class="st2" d="M245.36,246.89c1.36,2.6,0.77,5.6-1.33,6.71c-2.1,1.1-4.91-0.11-6.27-2.72c-1.36-2.6-0.77-5.6,1.33-6.71
								C241.19,243.07,244,244.28,245.36,246.89z"/>
						</g>
					</g>
				</g>
				<g>
					<g>
						<g>
							<path class="st2" d="M375.34,348.69c-1.98,0.26-9.55,1.25-11.53,1.51c-14.61,1.91-23.25,28.01-19.28,58.3
								c3.97,30.28,19.03,53.28,33.64,51.37c1.98-0.26,9.55-1.25,11.53-1.51c14.61-1.91,23.25-28.01,19.28-58.3
								C405.02,369.78,389.96,346.78,375.34,348.69z"/>
						</g>
						<g>
							
								<ellipse transform="matrix(0.9915 -0.1299 0.1299 0.9915 -49.6441 50.6544)" class="st9" cx="363.6" cy="406" rx="11.35" ry="37.6"/>
						</g>
					</g>
					<g>
						<g>
							<path class="st12" d="M398.14,350.82c-4.39-6.09-10.06-11.42-16.91-14.49c-14.12-6.34-27.37-1.02-34.13,12.48
								c-4.72,9.43-8.77,21.99-8.16,32.61c0.68,11.88,0.94,25.26,3.54,36.87c22.53-2.64,54.86-7.96,74.62-15.34
								C414.29,385.17,408.67,365.42,398.14,350.82z"/>
						</g>
						<g>
							<path class="st13" d="M356.83,340.32c-4.06,2.19-7.23,5.98-8.66,10.37c1.82-2.14,5.06-2.72,7.73-1.84
								c2.67,0.88,4.79,2.99,6.25,5.39c1.45,2.41,2.31,5.11,3.16,7.79c4.15,13.12,8.3,26.23,12.46,39.35
								c0.53,1.69,1.12,3.46,2.42,4.66c2.44,2.26,6.27,1.67,9.51,0.93c-1.67,0.36-3.4-0.59-4.46-1.92c-1.06-1.33-1.59-3-2.1-4.63
								c-5.44-17.63-10.3-35.44-14.58-53.39c-0.68-2.85-1.59-6.05-4.18-7.43C362.05,338.36,359.15,339.07,356.83,340.32z"/>
						</g>
					</g>
					<g>
						<g>
							<path class="st2" d="M344.58,371.64c-1.24,15.38,4.12,30.41,7.76,45.41c0.73,2.99,1.42,6.06,3.11,8.63
								c1.7,2.56,4.67,4.54,7.71,4.1c3.34-0.48,5.73-3.71,6.34-7.03c0.6-3.32-0.19-6.71-0.98-9.99
								c-4.09-16.99-8.17-33.99-12.26-50.98c-2.26-2.31-6.43-1.51-8.61,0.87C345.48,365.03,344.83,368.42,344.58,371.64z"/>
						</g>
						<g>
							<path class="st9" d="M359.86,412.18c0,6.8-1.89,12.3-4.23,12.3c-2.34,0-4.23-5.51-4.23-12.3c0-6.8,1.89-12.3,4.23-12.3
								C357.97,399.87,359.86,405.38,359.86,412.18z"/>
						</g>
						<g>
							<path class="st9" d="M363.53,425.77c0.59,0.71,1.68,0.86,2.53,0.5c0.85-0.35,1.48-1.11,1.9-1.94
								c1.32-2.61,0.75-5.73,0.1-8.57c-3.68-15.96-9.35-31.45-12.16-47.58c-0.23-1.34-0.47-2.74-1.28-3.83
								c-0.81-1.09-2.39-1.75-3.57-1.07c-0.81,0.46-1.23,1.43-1.27,2.37c-0.05,0.93,0.21,1.85,0.47,2.75
								c2.67,9.49,4.75,19.15,6.21,28.9c2.06,0.53,3.38,2.51,4.31,4.43c3.11,6.4,4.02,13.85,2.54,20.81
								C363.07,423.63,362.82,424.9,363.53,425.77z"/>
						</g>
						<g>
							<path class="st9" d="M353.36,398.57c-1.4,1.73-2.44,3.76-3.02,5.91C350.16,402.16,351.37,399.78,353.36,398.57z"/>
						</g>
					</g>
				</g>
			</g>
			<g>
				<path class="st8" d="M272.19,243.33c-0.71-2.11-1.95-7.53-3.93-8.55c-2.47-1.26-5.36-1.4-8.08-1.55
					c-2.88-0.16-5.82-0.54-8.67,0.1c-2.14,0.48-3.85,1.42-5.3,3.08c-1.54,1.76-2.4,3.13-2.31,5.47c0.09,2.34,3.94,6.41,6.28,6.5
					c-0.69,0.33-0.89,1.28-0.63,2c0.26,0.72,0.85,1.26,1.41,1.78c1.26,1.14,2.52,2.29,3.79,3.43c0.93,0.84,1.92,1.71,3.14,1.95
					c1.56,0.3,3.12-0.49,4.44-1.38c2.37-1.59,5.03-2.7,6.77-4.96C271.2,248.48,273.29,246.56,272.19,243.33z"/>
			</g>
		</g>
	</g>
</g>
</svg>
