<svg width="122" height="26" viewBox="0 0 122 26" fill="none" xmlns="http://www.w3.org/2000/svg">
<path d="M18.132 0.278514H22.02V25.4785H18.456L3.804 6.25451C3.948 7.71851 4.08 9.18251 4.2 10.6465C4.344 12.0865 4.416 13.5385 4.416 15.0025V25.4785H0.528V0.278514H4.02L18.672 19.8985C18.456 18.1465 18.312 16.2625 18.24 14.2465C18.168 12.2065 18.132 10.3105 18.132 8.55851V0.278514ZM44.3749 22.9945H44.3389C43.5709 23.7385 42.5149 24.3985 41.1709 24.9745C39.8269 25.5505 38.4229 25.8385 36.9589 25.8385C34.9909 25.8385 33.2509 25.4305 31.7389 24.6145C30.2509 23.7745 29.0869 22.6345 28.2469 21.1945C27.4069 19.7305 26.9869 18.0745 26.9869 16.2265C26.9869 14.1145 27.4309 12.3145 28.3189 10.8265C29.2069 9.31451 30.3829 8.16251 31.8469 7.37051C33.3109 6.55452 34.9069 6.14652 36.6349 6.14652C38.2189 6.14652 39.6589 6.54252 40.9549 7.33452C42.2509 8.10251 43.2829 9.17051 44.0509 10.5385C44.8189 11.9065 45.2029 13.5025 45.2029 15.3265L45.1669 16.9105H30.6949C30.9109 18.6145 31.6069 19.9705 32.7829 20.9785C33.9829 21.9625 35.4949 22.4545 37.3189 22.4545C38.6389 22.4545 39.7069 22.2145 40.5229 21.7345C41.3389 21.2305 42.0109 20.7505 42.5389 20.2945L44.3749 22.9945ZM36.6349 9.56651C35.2189 9.56651 33.9829 9.90251 32.9269 10.5745C31.8709 11.2225 31.1749 12.3505 30.8389 13.9585H41.4229V13.7065C41.3509 12.8905 41.0749 12.1705 40.5949 11.5465C40.1389 10.9225 39.5629 10.4425 38.8669 10.1065C38.1709 9.74651 37.4269 9.56651 36.6349 9.56651ZM47.1112 25.4785L54.3832 16.0105L47.0752 6.57851H51.7552L56.8672 13.2385L61.1872 6.57851H65.5792L58.8832 15.9025L66.2272 25.4785H61.6912L56.5072 18.7465L51.4672 25.5145L47.1112 25.4785ZM75.39 25.4785H71.682V10.1785H67.758V6.57851H71.682V1.75451H75.39V6.57851H79.782V10.1785H75.39V25.4785Z" fill="black"/>
<path d="M103.966 0.278514L94.7504 14.2465V25.4785H90.8624V14.3185L80.9264 0.278514H85.6064L92.8784 10.7185L99.5024 0.278514H103.966ZM121.645 6.57851V25.4785H117.901V22.5625C117.325 23.3545 116.473 24.0985 115.345 24.7945C114.217 25.4905 112.909 25.8385 111.421 25.8385C109.837 25.8385 108.385 25.4185 107.065 24.5785C105.769 23.7385 104.737 22.5745 103.969 21.0865C103.201 19.5985 102.817 17.8945 102.817 15.9745C102.817 14.0545 103.213 12.3625 104.005 10.8985C104.797 9.41052 105.889 8.25851 107.281 7.44251C108.673 6.60251 110.257 6.18252 112.033 6.18252C113.353 6.18252 114.505 6.47052 115.489 7.04651C116.497 7.62251 117.301 8.29451 117.901 9.06251V6.57851H121.645ZM112.285 22.4185C113.437 22.4185 114.445 22.1425 115.309 21.5905C116.173 21.0145 116.845 20.2465 117.325 19.2865C117.805 18.3025 118.045 17.1985 118.045 15.9745C118.045 14.7745 117.805 13.6945 117.325 12.7345C116.845 11.7745 116.173 11.0185 115.309 10.4665C114.445 9.89051 113.437 9.60252 112.285 9.60252C111.181 9.60252 110.197 9.87852 109.333 10.4305C108.469 10.9825 107.797 11.7385 107.317 12.6985C106.837 13.6585 106.597 14.7505 106.597 15.9745C106.597 17.1985 106.837 18.3025 107.317 19.2865C107.797 20.2465 108.469 21.0145 109.333 21.5905C110.197 22.1425 111.181 22.4185 112.285 22.4185Z" fill="#AE03FF"/>
</svg>
