<svg width="122" height="27" viewBox="0 0 122 27" fill="none" xmlns="http://www.w3.org/2000/svg">
<path d="M18.132 0.799998H22.02V26H18.456L3.804 6.776C3.948 8.24 4.08 9.704 4.2 11.168C4.344 12.608 4.416 14.06 4.416 15.524V26H0.528V0.799998H4.02L18.672 20.42C18.456 18.668 18.312 16.784 18.24 14.768C18.168 12.728 18.132 10.832 18.132 9.08V0.799998ZM44.3749 23.516H44.3389C43.5709 24.26 42.5149 24.92 41.1709 25.496C39.8269 26.072 38.4229 26.36 36.9589 26.36C34.9909 26.36 33.2509 25.952 31.7389 25.136C30.2509 24.296 29.0869 23.156 28.2469 21.716C27.4069 20.252 26.9869 18.596 26.9869 16.748C26.9869 14.636 27.4309 12.836 28.3189 11.348C29.2069 9.836 30.3829 8.684 31.8469 7.892C33.3109 7.076 34.9069 6.668 36.6349 6.668C38.2189 6.668 39.6589 7.064 40.9549 7.856C42.2509 8.624 43.2829 9.692 44.0509 11.06C44.8189 12.428 45.2029 14.024 45.2029 15.848L45.1669 17.432H30.6949C30.9109 19.136 31.6069 20.492 32.7829 21.5C33.9829 22.484 35.4949 22.976 37.3189 22.976C38.6389 22.976 39.7069 22.736 40.5229 22.256C41.3389 21.752 42.0109 21.272 42.5389 20.816L44.3749 23.516ZM36.6349 10.088C35.2189 10.088 33.9829 10.424 32.9269 11.096C31.8709 11.744 31.1749 12.872 30.8389 14.48H41.4229V14.228C41.3509 13.412 41.0749 12.692 40.5949 12.068C40.1389 11.444 39.5629 10.964 38.8669 10.628C38.1709 10.268 37.4269 10.088 36.6349 10.088ZM47.1112 26L54.3832 16.532L47.0752 7.1H51.7552L56.8672 13.76L61.1872 7.1H65.5792L58.8832 16.424L66.2272 26H61.6912L56.5072 19.268L51.4672 26.036L47.1112 26ZM75.39 26H71.682V10.7H67.758V7.1H71.682V2.276H75.39V7.1H79.782V10.7H75.39V26Z" fill="white"/>
<path d="M103.966 0.799998L94.7504 14.768V26H90.8624V14.84L80.9264 0.799998H85.6064L92.8784 11.24L99.5024 0.799998H103.966ZM121.645 7.1V26H117.901V23.084C117.325 23.876 116.473 24.62 115.345 25.316C114.217 26.012 112.909 26.36 111.421 26.36C109.837 26.36 108.385 25.94 107.065 25.1C105.769 24.26 104.737 23.096 103.969 21.608C103.201 20.12 102.817 18.416 102.817 16.496C102.817 14.576 103.213 12.884 104.005 11.42C104.797 9.932 105.889 8.78 107.281 7.964C108.673 7.124 110.257 6.704 112.033 6.704C113.353 6.704 114.505 6.992 115.489 7.568C116.497 8.144 117.301 8.816 117.901 9.584V7.1H121.645ZM112.285 22.94C113.437 22.94 114.445 22.664 115.309 22.112C116.173 21.536 116.845 20.768 117.325 19.808C117.805 18.824 118.045 17.72 118.045 16.496C118.045 15.296 117.805 14.216 117.325 13.256C116.845 12.296 116.173 11.54 115.309 10.988C114.445 10.412 113.437 10.124 112.285 10.124C111.181 10.124 110.197 10.4 109.333 10.952C108.469 11.504 107.797 12.26 107.317 13.22C106.837 14.18 106.597 15.272 106.597 16.496C106.597 17.72 106.837 18.824 107.317 19.808C107.797 20.768 108.469 21.536 109.333 22.112C110.197 22.664 111.181 22.94 112.285 22.94Z" fill="#AE03FF"/>
</svg>
