<svg id="Camada_1" data-name="Camada 1" xmlns="http://www.w3.org/2000/svg" viewBox="0 0 864 312"><defs><style>.cls-1{fill:#d2d2d2;}.cls-2{fill:#f25022;}.cls-3{fill:#7fba00;}.cls-4{fill:#00a4ef;}.cls-5{fill:#ffb900;}.cls-6,.cls-7{fill:#fff;}.cls-7{isolation:isolate;font-size:79.18px;font-family:SegoeUI-Semibold, Segoe UI;font-weight:600;}.cls-8{letter-spacing:-0.01em;}</style></defs><title>windows download</title><g id="Layer_2" data-name="Layer 2"><rect x="2.3" y="2.3" width="859.5" height="307.5"/><path class="cls-1" d="M4.5,4.5h855v303H4.5ZM0,312H864V0H0Z"/></g><g id="Layer_1" data-name="Layer 1"><rect class="cls-2" x="70.5" y="68.6" width="83.8" height="83.8"/><rect class="cls-3" x="163" y="68.6" width="83.8" height="83.8"/><rect class="cls-4" x="70.5" y="161" width="83.8" height="83.8"/><rect class="cls-5" x="163" y="161" width="83.8" height="83.8"/><path class="cls-6" d="M408.4,163.2a8.11,8.11,0,0,1,2.7-6.2,9.43,9.43,0,0,1,12.9.1,8.48,8.48,0,0,1,2.6,6.1,7.9,7.9,0,0,1-2.7,6.1,9.7,9.7,0,0,1-13,0,8.8,8.8,0,0,1-2.5-6.1m16.5,81.7H410V181.5h14.9Z"/><path class="cls-6" d="M470.2,234a20.69,20.69,0,0,0,7.3-1.5,29.74,29.74,0,0,0,7.4-4.1v13.9a29,29,0,0,1-8.1,3.1,44,44,0,0,1-10,1c-9.3,0-16.9-3-22.8-8.9s-8.8-13.4-8.8-22.6c0-10.2,3-18.6,8.9-25.2s14.4-9.9,25.4-9.9a36.06,36.06,0,0,1,8.5,1.1,28.84,28.84,0,0,1,6.8,2.5v14.3a29.31,29.31,0,0,0-7.1-3.9,21.11,21.11,0,0,0-7.4-1.4c-5.9,0-10.6,1.9-14.3,5.7s-5.4,9-5.4,15.5,1.7,11.4,5.2,15c3.7,3.7,8.4,5.4,14.4,5.4"/><path class="cls-6" d="M527.4,180.4a28.8,28.8,0,0,1,3.2.2c.9.2,1.8.4,2.4.6v15.1a12,12,0,0,0-3.4-1.6,17.28,17.28,0,0,0-5.5-.8,11.45,11.45,0,0,0-9.3,4.6c-2.5,3.1-3.8,7.8-3.8,14.3v32H496.1V181.4H511v10h.2a17,17,0,0,1,6.2-8.1,17.79,17.79,0,0,1,10-2.9"/><path class="cls-6" d="M533.9,214.1c0-10.5,3-18.8,8.9-24.9S557,180,567.5,180c9.9,0,17.7,2.9,23.2,8.9s8.4,13.9,8.4,23.9c0,10.3-3,18.5-8.9,24.6s-14,9.1-24.2,9.1q-14.7,0-23.4-8.7c-5.9-5.8-8.7-13.7-8.7-23.7m15.5-.5c0,6.6,1.5,11.7,4.5,15.2s7.3,5.2,12.9,5.2c5.4,0,9.6-1.7,12.4-5.2s4.3-8.7,4.3-15.5-1.5-12-4.4-15.5-7.1-5.2-12.4-5.2c-5.5,0-9.7,1.8-12.7,5.5s-4.6,8.8-4.6,15.5"/><path class="cls-6" d="M621.2,198.1a6.55,6.55,0,0,0,2,5c1.4,1.2,4.4,2.7,9,4.6,6,2.4,10.1,5.1,12.5,8a16.75,16.75,0,0,1,3.6,10.8,17.36,17.36,0,0,1-6.9,14.4q-6.9,5.4-18.6,5.4a40.76,40.76,0,0,1-8.7-1,41.47,41.47,0,0,1-8.1-2.4V228.2a34.82,34.82,0,0,0,8.8,4.5,26.12,26.12,0,0,0,8.5,1.7c3.4,0,5.9-.5,7.5-1.4s2.4-2.5,2.4-4.8a6.39,6.39,0,0,0-2.5-5.2c-1.7-1.4-4.8-3.1-9.5-4.9q-8.25-3.45-11.7-7.8a17,17,0,0,1-3.5-11,17.52,17.52,0,0,1,6.8-14.1c4.5-3.7,10.4-5.5,17.7-5.5a42.69,42.69,0,0,1,7.5.7,30.62,30.62,0,0,1,6.9,1.9v14.2a37,37,0,0,0-6.9-3.4,23.79,23.79,0,0,0-7.8-1.4,11.5,11.5,0,0,0-6.6,1.7,5.78,5.78,0,0,0-2.4,4.7"/><path class="cls-6" d="M655,214.1c0-10.5,3-18.8,8.9-24.9s14.2-9.2,24.7-9.2c9.9,0,17.7,2.9,23.2,8.9s8.4,13.9,8.4,23.9c0,10.3-3,18.5-8.9,24.6s-14,9.1-24.2,9.1q-14.7,0-23.4-8.7T655,214.1m15.5-.5c0,6.6,1.5,11.7,4.5,15.2s7.3,5.2,12.9,5.2c5.4,0,9.6-1.7,12.4-5.2s4.3-8.7,4.3-15.5-1.5-12-4.4-15.5-7.1-5.2-12.4-5.2c-5.5,0-9.7,1.8-12.7,5.5s-4.6,8.8-4.6,15.5"/><path class="cls-6" d="M769.5,193.7v32.6c0,6.7,1.6,11.8,4.7,15.1s7.9,5,14.2,5a29.37,29.37,0,0,0,6.5-.7,13.52,13.52,0,0,0,4.7-1.5V231.9a13.54,13.54,0,0,1-3.2,1.5,10.42,10.42,0,0,1-3.1.6c-3,0-5.3-.8-6.7-2.4s-2.1-4.4-2.1-8.3V193.6h15.1V181.4H784.5V162.6l-15,4.6v14.3H747.3v-7.7c0-3.8.8-6.7,2.5-8.7s4.1-2.9,7.2-2.9a14.42,14.42,0,0,1,4.3.6c1.2.4,2.1.8,2.6,1V151a18.45,18.45,0,0,0-3.7-.8,34.25,34.25,0,0,0-4.8-.3c-6.8,0-12.4,2.1-16.7,6.4a22.15,22.15,0,0,0-6.5,16.4v8.8H721.6v12.2h10.6v51.2h15.1V193.7Z"/><polygon class="cls-6" points="395.6 156.4 395.6 244.9 380.2 244.9 380.2 175.5 380 175.5 352.5 244.9 342.3 244.9 314.2 175.5 314 175.5 314 244.9 299.8 244.9 299.8 156.4 321.8 156.4 347.3 222 347.6 222 374.5 156.4 395.6 156.4"/><text class="cls-7" transform="translate(291.14 123.83)">Bai<tspan class="cls-8" x="109.84" y="0">x</tspan><tspan x="148.54" y="0">e da</tspan></text></g></svg>